<svg width="918" height="935" viewBox="0 0 918 935" fill="none" xmlns="http://www.w3.org/2000/svg">
<path d="M120.502 597.5C113.247 618.259 91.6738 705.344 161.052 777.745C216.777 835.898 353.464 899.957 483.001 914C709.002 938.5 851.763 878.838 881.002 763C907 660 864.001 542.5 770.501 531.5C704.655 523.753 665.344 511.429 599.282 471.918C533.219 432.407 476.883 389.389 460.439 362.486C443.995 335.584 433.102 286.764 428.785 262.803C424.468 238.842 394.582 221.609 402.763 218.426C410.944 215.244 434.248 190.194 389.851 110.509C345.454 30.8237 282.878 25.531 230.17 22.2823C177.462 19.0336 189.072 33.8307 169.408 36.8741C149.744 39.9176 71.0308 -8.10317 51.4216 2.46682C31.8124 13.0368 39.2418 44.667 40.2537 56.5942C41.2657 68.5213 31.6796 77.5785 41.7703 118.441C51.861 159.303 147.091 197.402 161.052 228.544C175.013 259.687 154.02 284.448 157.486 310.35C160.953 336.251 167.402 364.306 188.002 407.5C203.502 440 188.002 486.5 172.002 507C139.428 548.736 136.455 551.852 120.502 597.5Z" fill="#9C9B9B" fill-opacity="0.6"/>
<path d="M701.506 491.332C701.506 531.587 708.775 639.286 640.676 726.068C555.906 841.649 429.502 878 273.189 844.5C250.628 839.665 135.597 792.472 116.502 694C99.0616 604.058 125.109 563.822 146.502 507C160.293 470.372 173.412 459.498 151.915 410.661C145.641 396.407 107.3 364.673 125.957 338.219C144.614 311.766 190.853 330.893 219.65 388.684C248.447 446.475 218.028 503.452 183.146 550.661C166.006 573.858 150.293 615.777 159.622 662.172C167.085 699.289 202.615 724.304 219.65 726.068C224.652 693.238 188.825 588.103 273.189 499.789C350.474 418.886 403.791 418.393 467.064 391.94C530.337 365.486 546.967 338.219 551.428 301.998C555.89 265.777 538.044 215.312 540.072 187.231C541.694 164.766 555.079 137.444 561.568 126.591C571.429 126.591 570.897 159.963 596.45 171.766C622.002 149.382 646.744 155.487 665.401 164.847C684.059 174.207 697.444 178.277 718.94 181.533C739.707 213.44 707.043 248.006 688.115 261.3C671.282 285.226 673.195 301.998 681.22 330.486C689.255 359.01 701.506 435.157 701.506 491.332Z" fill="#9C9B9B" fill-opacity="0.9"/>
</svg>
