<svg width="1196" height="1280" viewBox="0 0 1196 1280" fill="none" xmlns="http://www.w3.org/2000/svg">
<path fill-rule="evenodd" clip-rule="evenodd" d="M355.399 22.89C406.737 5.09953 477.686 -7.52001 570.671 5.11388C663.841 17.7728 721.226 51.9492 756.639 91.3616C791.978 130.691 804.919 174.659 810.278 206.049C814.81 232.591 830.255 250.523 849.206 272.525C850.797 274.371 852.412 276.247 854.048 278.158C875.012 302.659 898.106 332.018 910.19 381.126C928.908 457.192 913.756 527.433 902.998 555.434C907.337 572.401 910.034 594.583 910.363 623.491C911.127 690.411 892.273 728.121 869.689 749.025C850.222 767.044 828.716 771.889 816.67 772.855C813.197 785.558 805.16 800.65 795.096 815.751C796.729 848.839 799.659 916.014 798.857 932.845C798.636 937.491 797.29 943.589 794.588 950.691C799.376 975.76 829.411 1006.26 903.294 1011.57C942.221 1014.37 1002.32 1026.19 1059.19 1064.07C1116.21 1102.04 1169.6 1165.95 1195.2 1272.15C1195.97 1275.37 1193.99 1278.62 1190.77 1279.39C1187.55 1280.17 1184.31 1278.19 1183.53 1274.97C1158.63 1171.67 1107.02 1110.33 1052.54 1074.05C997.907 1037.67 940.006 1026.25 902.434 1023.54C836.791 1018.82 800.01 994.238 787.143 966.401C768.873 998.913 725.867 1045.08 635.235 1084.07C610.767 1094.6 591.517 1100.26 576.382 1102.14C561.262 1104.03 549.711 1102.21 541.206 1097.12C532.57 1091.96 527.976 1083.96 525.738 1075.45C524.273 1069.88 523.776 1063.96 523.794 1058.18C472.543 1073.16 364.672 1102.51 284.427 1116.96C231.968 1126.41 200.309 1136.79 179.553 1146.89C159.044 1156.88 148.963 1166.69 139.636 1175.77L139.55 1175.86C136.273 1179.05 131.849 1184.99 126.705 1192.97C121.635 1200.83 116.103 1210.29 110.598 1220.21C99.5898 1240.04 88.82 1261.48 82.2756 1275.15C80.8446 1278.14 77.2616 1279.4 74.2728 1277.97C71.284 1276.54 70.0212 1272.96 71.4522 1269.97C78.0744 1256.14 88.9546 1234.48 100.105 1214.39C105.679 1204.34 111.353 1194.63 116.62 1186.47C121.812 1178.41 126.854 1171.47 131.178 1167.26L131.253 1167.19C140.884 1157.81 152.055 1146.93 174.3 1136.1C196.419 1125.33 229.259 1114.71 282.3 1105.15C364.129 1090.42 475.294 1059.97 524.53 1045.46C524.949 1041.4 525.486 1037.52 525.978 1034.05L526.115 1033.08C526.727 1028.77 527.217 1025.32 527.375 1022.7C527.925 1013.53 526.193 1001.09 523.63 988.92C522.04 981.368 520.175 974.118 518.466 968.123C410.153 985.043 327.343 976.154 263.22 952.437C187.089 924.278 137.921 875.446 103.903 825.434C69.2046 774.422 65.5642 713.278 74.5623 656.311C83.5655 599.312 105.333 545.723 122.425 509.026C131.794 488.91 137.159 465.651 139.872 442.418C120.354 446.625 92.4067 448.257 66.7614 440.302C38.6799 431.592 13.3673 411.31 5.4768 371.218C-2.28471 331.781 3.45201 300.609 13.8524 277.712C12.4434 277.211 11.2187 276.186 10.4971 274.743C1.01199 255.772 -1.78513 240.078 1.05954 226.393C3.90425 212.708 12.1735 202.099 22.5711 192.882C31.3409 185.108 42.1136 177.921 53.1124 170.583C55.0218 169.309 56.938 168.031 58.8516 166.744C71.976 157.919 85.3221 148.495 97.1428 136.795C122.776 111.423 157.147 98.5922 187.911 90.2079C198.774 87.2471 209.387 84.7937 219.031 82.5639C223.025 81.6407 226.852 80.7557 230.463 79.889C243.105 76.8548 252.819 74.0978 259.03 70.7704C261.831 69.27 265.473 67.0543 269.958 64.3254C286.677 54.1529 315.115 36.8497 355.399 22.89ZM19.7597 266.34C29.1005 250.497 40.3932 239.863 49.2263 234.445C52.0508 232.712 55.7453 233.597 57.478 236.422C59.2108 239.246 58.3256 242.941 55.5011 244.674C37.7706 255.55 2.94286 296.2 17.2509 368.901C24.1604 404.008 45.7645 421.226 70.3163 428.841C95.1413 436.541 122.969 434.336 141.093 429.817C141.488 424.744 141.766 419.699 141.943 414.717C142.908 387.512 140.83 362.542 138.273 345.531C122.08 352.987 103.095 358.747 86.3717 356.826C76.4861 355.691 67.1792 351.84 59.9354 343.928C52.7499 336.079 48.1111 324.798 46.4019 309.736C46.0283 306.443 48.3946 303.471 51.6871 303.098C54.9797 302.724 57.9518 305.09 58.3254 308.383C59.8441 321.766 63.8056 330.384 68.7864 335.825C73.709 341.202 80.1343 344.031 87.7407 344.905C103.397 346.703 123.07 340.073 140.113 331.282C148.135 327.144 155.316 322.662 160.869 318.682C177.142 307.02 203.53 300.257 229.18 297.043C255.006 293.807 281.411 294.013 298.453 297.159C301.298 297.684 303.364 300.166 303.364 303.059C303.364 315.989 306.036 322.875 312.544 327.664C319.844 333.034 332.934 336.586 356.498 339.093C367.066 340.217 382.927 337.741 402.23 332.503C421.337 327.318 443.14 319.625 465.279 310.856C509.55 293.322 554.737 271.662 581.602 257.733C583.514 256.741 585.811 256.851 587.62 258.02C589.429 259.189 590.473 261.238 590.355 263.388C590.151 267.101 589.937 270.567 589.735 273.841C588.677 291.007 591.669 305.078 594.364 319.65C597.573 337.002 627.364 391.559 627.364 391.559C627.364 391.559 654.364 439.905 703.972 464.561C707.692 466.41 711.412 468.219 715.085 470.004C726.61 475.607 737.666 480.982 746.795 486.67C758.809 494.156 768.966 503.035 772.617 515.355C777.811 532.884 776.618 558.047 773.409 581.582C770.971 599.459 767.28 616.99 763.871 630.605C767.787 628.965 772.625 626.98 778.385 624.678C775.893 598.571 781.435 573.476 790.709 552.963C800.459 531.396 814.69 514.143 828.976 506.3C829.469 506.029 829.998 505.829 830.547 505.706C831.055 505.591 831.595 505.466 832.167 505.334C839.842 503.56 853.018 500.514 866.288 505.04C877.944 509.015 888.659 518.353 896.584 536.408C905.557 504.261 913.828 446.131 898.538 383.993C887.122 337.601 865.465 309.96 844.93 285.96C843.219 283.961 841.507 281.978 839.803 280.005C821.213 258.481 803.568 238.051 798.449 208.069C793.309 177.959 775.65 145.605 742.364 108.559C709.152 71.5966 659.886 29.3457 569.056 17.0046C478.041 4.63853 408.99 17.019 359.328 34.2285C320.495 47.6857 293.737 63.941 276.821 74.2176C271.997 77.1487 267.972 79.5934 264.697 81.3481C256.908 85.5207 251.785 90.0778 239.364 93.0592C235.571 93.9696 226.419 96.6217 222.364 97.5592C212.806 99.7685 198.539 104.663 187.911 107.559C157.674 115.8 128.951 122.195 105.584 145.324C92.9052 157.873 78.7513 167.824 65.5475 176.702C63.5488 178.046 61.5786 179.362 59.6415 180.655C48.6006 188.026 38.6305 194.682 30.5312 201.862C21.1163 210.207 14.9168 218.692 12.8084 228.835C10.8236 238.383 12.2716 250.346 19.7597 266.34ZM149.527 339.87C152.469 357.627 155.001 385.087 153.935 415.143C152.78 447.723 147.381 483.866 133.303 514.093C121.864 554.059 100.364 603.559 86.4154 658.183C77.6636 713.591 81.5232 771.196 113.825 818.685C146.806 867.172 194.139 914.091 267.383 941.182C328.942 963.951 409.244 972.876 515.393 956.457C515.624 954.172 517.165 952.125 519.487 951.36C522.436 950.389 525.6 951.83 526.839 954.605C543.599 951.774 560.987 948.323 579.03 944.209C582.261 943.473 585.477 945.495 586.214 948.725C586.95 951.956 584.928 955.172 581.698 955.909C563.999 959.944 546.903 963.354 530.385 966.174C532.06 972.148 533.839 979.161 535.373 986.448C537.985 998.859 540.003 1012.59 539.353 1023.42C539.165 1026.56 538.604 1030.5 538.021 1034.59C537.968 1034.97 537.914 1035.35 537.86 1035.73C537.203 1040.36 536.516 1045.38 536.122 1050.52C535.524 1058.3 535.639 1065.92 537.343 1072.4C539.013 1078.75 542.11 1083.68 547.367 1086.83C552.755 1090.05 561.299 1091.93 574.898 1090.24C588.482 1088.54 606.574 1083.34 630.493 1073.05C733.11 1028.9 771.436 976.241 782.824 947.827C785.624 940.841 786.716 935.526 786.871 932.274C787.533 918.361 785.474 866.87 783.838 831.575C761.993 860.51 733.83 888.853 712.919 901.224C710.067 902.911 706.387 901.966 704.7 899.114C703.013 896.262 703.957 892.582 706.809 890.895C728.982 877.779 761.929 843.387 784.034 810.698C795.714 793.426 803.791 777.453 805.968 765.944C806.504 763.111 808.98 761.059 811.864 761.059C820.111 761.059 841.971 758.33 861.538 740.219C880.954 722.247 899.101 688.208 898.364 623.628C898.029 594.235 895.194 572.542 890.904 556.62C883.574 529.419 872.251 519.752 862.414 516.397C852.51 513.02 842.466 515.303 834.513 517.111C834.355 517.147 834.199 517.183 834.043 517.218C823.003 523.597 810.577 538.146 801.643 557.906C792.594 577.923 787.48 602.546 790.812 627.774C791.173 630.503 789.63 633.127 787.07 634.139C769.913 640.922 760.082 645.235 757.419 646.488C755.287 647.491 752.767 647.154 750.974 645.627C749.181 644.1 748.447 641.665 749.097 639.402C753.03 625.72 758.363 603.104 761.519 579.961C764.71 556.555 765.517 533.634 761.111 518.764C758.761 510.833 751.856 503.962 740.449 496.855C731.903 491.53 721.664 486.551 710.305 481.027C706.53 479.192 702.632 477.296 698.631 475.307C667.106 459.639 630.727 438.915 610.519 399.285C591.221 361.442 582.38 338.798 578.839 319.65C575.877 303.637 576.686 290.206 577.747 273.184C550.191 287.11 509.613 306.204 469.698 322.013C447.337 330.869 425.077 338.738 405.372 344.084C385.863 349.378 368.161 352.401 355.229 351.026C331.793 348.532 315.633 344.834 305.433 337.33C295.767 330.218 292.221 320.38 291.506 308.201C275.942 306.081 253.288 306.116 230.672 308.95C205.447 312.111 181.586 318.598 167.859 328.436C162.766 332.086 156.496 336.068 149.527 339.87ZM449.451 408.302C437.857 408.859 426.676 416.786 419.868 424.523C417.679 427.011 413.888 427.253 411.4 425.064C408.912 422.874 408.67 419.083 410.86 416.595C418.718 407.665 432.688 397.093 448.876 396.316C465.975 395.496 483.019 405.612 496.263 432.943C497.708 435.925 496.462 439.513 493.48 440.959C490.498 442.404 486.91 441.158 485.464 438.176C473.509 413.506 460.136 407.79 449.451 408.302ZM213.789 428.411C204.009 434.41 198.016 445.717 195.664 454.596C194.815 457.799 191.53 459.708 188.327 458.859C185.124 458.01 183.215 454.726 184.064 451.523C186.878 440.901 194.186 426.358 207.514 418.182C221.451 409.633 240.38 408.974 263.998 423.443C266.824 425.174 267.711 428.868 265.98 431.694C264.249 434.519 260.555 435.407 257.73 433.676C236.947 420.944 222.96 422.785 213.789 428.411ZM216.323 506.247C210.49 504.004 203.132 505.797 197.802 508.791C194.913 510.413 191.255 509.387 189.632 506.497C188.01 503.608 189.036 499.951 191.926 498.328C198.762 494.488 210.055 490.981 220.629 495.046C231.884 499.373 239.651 511.12 241.344 532.076C241.611 535.379 239.15 538.273 235.847 538.54C232.544 538.807 229.65 536.345 229.383 533.043C227.877 514.398 221.477 508.229 216.323 506.247ZM438.63 506.975C434.091 504.598 428.691 505.885 424.692 508.552C421.935 510.39 418.21 509.645 416.372 506.887C414.533 504.13 415.278 500.405 418.036 498.567C424.036 494.566 434.286 491.154 444.197 496.344C454.076 501.517 461.139 513.976 463.819 535.829C464.223 539.118 461.883 542.111 458.594 542.515C455.305 542.918 452.312 540.579 451.908 537.29C449.389 516.742 443.202 509.368 438.63 506.975ZM299.409 520.238C302.623 519.435 305.881 521.389 306.685 524.604C307.185 526.604 307.789 528.814 308.422 531.132C309.829 536.277 311.382 541.961 312.275 547.094C313.533 554.324 314.083 563.227 309.13 569.704C307.427 571.931 304.674 573.53 302.51 574.672C300.251 575.865 297.483 577.12 294.633 578.412L294.077 578.664C287.811 581.506 280.686 584.789 274.223 589.156C267.767 593.518 262.381 598.698 259.279 605.099C256.253 611.34 255.12 619.308 258.135 629.919C264.431 652.071 275.126 661.767 287.505 666.816C293.946 669.443 301.089 670.906 308.85 671.949C312.723 672.469 316.678 672.876 320.747 673.283L321.897 673.398C325.574 673.766 329.343 674.142 333.097 674.604C336.386 675.009 338.724 678.003 338.319 681.292C337.914 684.581 334.92 686.919 331.631 686.514C328.021 686.07 324.388 685.707 320.687 685.337L319.551 685.224C315.487 684.817 311.349 684.392 307.253 683.842C299.076 682.744 290.782 681.113 282.973 677.927C266.852 671.352 253.797 658.548 246.592 633.2C242.858 620.06 244.038 609.028 248.48 599.864C252.846 590.858 260.086 584.225 267.505 579.213C274.917 574.205 282.917 570.55 289.12 567.736L289.513 567.557C292.523 566.192 294.981 565.078 296.909 564.06C298.692 563.118 299.385 562.573 299.559 562.437C299.605 562.401 299.614 562.393 299.598 562.415C301.145 560.391 301.695 556.294 300.453 549.15C299.656 544.568 298.374 539.892 297.051 535.064C296.372 532.59 295.683 530.076 295.043 527.514C294.239 524.3 296.194 521.042 299.409 520.238ZM870.103 557C875.262 566.737 877.437 580.445 875.308 595.879C874.855 599.162 871.827 601.456 868.544 601.003C865.261 600.55 862.967 597.522 863.42 594.239C865.291 580.674 863.215 569.631 859.5 562.618C855.73 555.504 851.175 553.691 847.58 554.435C845.954 554.771 841.867 557.037 836.968 562.973C832.285 568.645 827.406 577.038 823.902 588.227C816.919 610.528 815.38 644.031 831.992 688.979C833.141 692.088 831.552 695.539 828.444 696.687C825.336 697.836 821.885 696.247 820.736 693.139C803.347 646.088 804.559 609.841 812.451 584.641C816.384 572.08 821.974 562.286 827.713 555.333C833.236 548.644 839.524 543.847 845.148 542.684C856.053 540.428 864.998 547.364 870.103 557ZM396.672 740.521C399.73 741.795 401.177 745.308 399.902 748.367C398.656 751.357 396.121 753.774 393.681 755.591C391.085 757.524 387.875 759.304 384.365 760.819C377.371 763.836 368.563 766.059 359.864 766.059C351.569 766.059 341.517 764.231 333.481 762.77L333.166 762.712C328.981 761.952 325.389 761.301 322.565 760.951C321.155 760.777 320.103 760.7 319.368 760.7C319.183 760.7 319.044 760.705 318.945 760.711C318.577 760.896 318.184 761.123 317.631 761.443C317.134 761.73 316.508 762.092 315.656 762.564C313.843 763.57 311.531 764.745 308.699 765.689C302.903 767.621 295.46 768.409 285.828 765.859C279.26 764.121 272.181 765.331 265.542 768.41C265.733 768.963 266.022 769.524 266.431 770.079C267.549 771.599 269.927 773.561 274.841 774.922C284.909 777.712 303.998 777.509 337.702 767.794C340.886 766.876 344.211 768.713 345.129 771.898C346.047 775.082 344.21 778.407 341.026 779.325C306.73 789.21 284.986 790.186 271.637 786.487C264.843 784.604 259.866 781.405 256.765 777.191C256.213 776.44 255.732 775.672 255.317 774.894C252.659 777.088 250.378 779.442 248.612 781.728C246.585 784.35 242.817 784.833 240.195 782.807C237.573 780.781 237.09 777.013 239.116 774.391C243.291 768.988 249.355 763.618 256.408 759.625C265.628 754.407 277.24 751.173 288.899 754.259C296.268 756.21 301.325 755.498 304.904 754.305C306.759 753.686 308.353 752.893 309.837 752.07C310.15 751.896 310.517 751.685 310.914 751.457C312.024 750.82 313.368 750.047 314.427 749.576C316.195 748.791 318.108 748.7 319.368 748.7C320.813 748.7 322.417 748.842 324.038 749.042C327.238 749.438 331.155 750.15 335.171 750.88L335.312 750.906C343.725 752.436 352.767 754.059 359.864 754.059C366.665 754.059 373.857 752.283 379.612 749.8C382.477 748.564 384.83 747.22 386.515 745.965C387.355 745.34 387.957 744.79 388.359 744.348C388.724 743.946 388.831 743.737 388.831 743.737C390.111 740.688 393.617 739.248 396.672 740.521Z" fill="#282849"/>
<ellipse cx="216.754" cy="547.059" rx="28.2529" ry="43.2077" transform="rotate(-4.98655 216.754 547.059)" fill="#282849"/>
<ellipse cx="439.265" cy="548.059" rx="28.2529" ry="43.2077" transform="rotate(-4.98655 439.265 548.059)" fill="#282849"/>
</svg>
