<svg width="800" height="800" viewBox="0 0 800 800" fill="none" xmlns="http://www.w3.org/2000/svg">
<mask id="mask0_127_221" style="mask-type:alpha" maskUnits="userSpaceOnUse" x="0" y="0" width="800" height="800">
<rect width="800" height="800" fill="#D9D9D9"/>
</mask>
<g mask="url(#mask0_127_221)">
<path fill-rule="evenodd" clip-rule="evenodd" d="M272.201 14.3112C304.298 3.1883 348.656 -4.70162 406.792 3.19727C465.043 11.1118 500.921 32.4794 523.062 57.1206C545.156 81.71 553.247 109.199 556.598 128.825C559.431 145.419 569.088 156.631 580.936 170.386C581.93 171.541 582.94 172.714 583.963 173.909C597.07 189.227 611.509 207.582 619.064 238.285C630.767 285.843 621.294 329.759 614.568 347.265C617.281 357.873 618.966 371.742 619.173 389.816C619.65 431.655 607.862 455.232 593.743 468.302C581.571 479.567 568.125 482.596 560.594 483.2C558.423 491.143 553.398 500.578 547.105 510.019C548.126 530.707 549.958 572.705 549.457 583.228C549.319 586.133 548.477 589.946 546.788 594.386C549.782 610.06 568.56 629.13 614.753 632.451C639.091 634.201 676.665 641.592 712.221 665.269C747.87 689.009 781.249 728.968 797.255 795.369C797.74 797.383 796.501 799.409 794.487 799.895C792.473 800.38 790.446 799.141 789.961 797.127C774.394 732.545 742.124 694.196 708.062 671.514C673.906 648.769 637.706 641.623 614.215 639.935C573.174 636.984 550.178 621.612 542.133 604.208C530.711 624.535 503.823 653.398 447.158 677.777C431.86 684.359 419.825 687.897 410.363 689.077C400.909 690.255 393.687 689.119 388.37 685.937C382.97 682.707 380.098 677.709 378.699 672.388C377.783 668.906 377.472 665.204 377.483 661.592C345.441 670.955 277.998 689.307 227.828 698.342C195.03 704.249 175.236 710.735 162.259 717.053C149.436 723.296 143.134 729.433 137.302 735.111L137.248 735.164C135.2 737.158 132.434 740.874 129.218 745.862C126.048 750.776 122.589 756.69 119.147 762.892C112.265 775.293 105.532 788.697 101.44 797.243C100.545 799.111 98.3051 799.901 96.4364 799.006C94.5678 798.111 93.7783 795.871 94.6729 794.003C98.8133 785.355 105.616 771.813 112.587 759.251C116.072 752.972 119.62 746.902 122.912 741.795C126.159 736.762 129.311 732.421 132.015 729.788L132.061 729.742C138.083 723.879 145.067 717.079 158.975 710.308C172.804 703.575 193.336 696.931 226.498 690.959C277.659 681.745 347.161 662.707 377.944 653.638C378.206 651.096 378.542 648.671 378.849 646.5L378.935 645.899C379.318 643.203 379.624 641.047 379.722 639.407C380.066 633.675 378.983 625.898 377.381 618.287C376.387 613.566 375.221 609.033 374.152 605.285C306.434 615.863 254.66 610.306 214.569 595.477C166.971 577.872 136.23 547.342 114.962 516.073C93.2677 484.18 90.9917 445.952 96.6175 410.335C102.246 374.699 115.856 341.194 126.542 318.251C132.4 305.674 135.754 291.132 137.45 276.606C125.247 279.237 107.774 280.257 91.7402 275.284C74.1832 269.838 58.3575 257.157 53.4242 232.091C48.5716 207.434 52.1582 187.945 58.6607 173.63C57.7798 173.316 57.0141 172.675 56.5629 171.773C50.6327 159.913 48.8839 150.1 50.6624 141.544C52.441 132.988 57.611 126.355 64.1118 120.593C69.5948 115.732 76.33 111.239 83.2067 106.651C84.4004 105.855 85.5984 105.055 86.7949 104.251C95.0004 98.7335 103.345 92.8413 110.735 85.5262C126.761 69.6636 148.251 61.6413 167.485 56.3993C174.277 54.5482 180.912 53.0143 186.941 51.6202C189.438 51.0429 191.831 50.4897 194.089 49.9478C201.992 48.0508 208.066 46.327 211.95 44.2467C213.701 43.3086 215.977 41.9233 218.782 40.2172C229.235 33.8572 247.015 23.039 272.201 14.3112ZM62.3541 166.519C68.1941 156.614 75.2544 149.966 80.777 146.578C82.543 145.495 84.8528 146.048 85.9361 147.814C87.0194 149.58 86.466 151.89 84.7001 152.974C73.6147 159.774 51.8399 185.189 60.7855 230.642C65.1054 252.592 78.6127 263.357 93.9628 268.118C109.484 272.932 126.882 271.553 138.214 268.728C138.46 265.556 138.634 262.402 138.745 259.287C139.348 242.278 138.049 226.667 136.45 216.031C126.326 220.693 114.456 224.294 104.001 223.093C97.8202 222.383 92.0014 219.976 87.4725 215.029C82.98 210.121 80.0798 203.069 79.0112 193.651C78.7776 191.593 80.257 189.735 82.3156 189.501C84.3741 189.267 86.2323 190.747 86.4659 192.805C87.4154 201.173 89.8922 206.561 93.0063 209.963C96.0839 213.324 100.101 215.093 104.857 215.639C114.645 216.764 126.945 212.618 137.601 207.122C142.616 204.535 147.106 201.733 150.577 199.245C160.751 191.953 177.25 187.725 193.287 185.716C209.433 183.693 225.942 183.821 236.597 185.788C238.376 186.117 239.667 187.668 239.667 189.477C239.667 197.561 241.338 201.866 245.407 204.86C249.971 208.218 258.155 210.439 272.888 212.006C279.495 212.709 289.412 211.16 301.48 207.886C313.426 204.644 327.058 199.834 340.899 194.352C368.578 183.389 396.83 169.847 413.626 161.138C414.822 160.518 416.258 160.587 417.389 161.318C418.52 162.049 419.172 163.33 419.098 164.674C418.971 166.996 418.837 169.162 418.711 171.209C418.049 181.942 419.92 190.739 421.605 199.85C423.611 210.699 442.237 244.809 442.237 244.809C442.237 244.809 459.118 275.035 490.133 290.451C492.46 291.607 494.785 292.737 497.082 293.854C504.287 297.357 511.2 300.717 516.907 304.273C524.419 308.954 530.769 314.505 533.051 322.207C536.299 333.167 535.553 348.899 533.546 363.614C532.023 374.791 529.715 385.751 527.583 394.264C530.032 393.238 533.056 391.997 536.658 390.558C535.1 374.236 538.565 358.546 544.363 345.72C550.459 332.237 559.356 321.45 568.288 316.546C568.596 316.377 568.927 316.252 569.27 316.175C569.588 316.103 569.926 316.025 570.283 315.942C575.082 314.833 583.319 312.929 591.616 315.758C598.903 318.243 605.603 324.082 610.557 335.37C616.168 315.271 621.339 278.928 611.779 240.078C604.641 211.073 591.102 193.791 578.262 178.786C577.193 177.536 576.122 176.297 575.057 175.064C563.434 161.606 552.403 148.833 549.202 130.088C545.988 111.263 534.948 91.0341 514.137 67.8728C493.372 44.7633 462.571 18.3474 405.782 10.6315C348.878 2.90007 305.707 10.6405 274.657 21.4002C250.378 29.8138 233.649 39.9769 223.073 46.4019C220.056 48.2345 217.54 49.763 215.492 50.86C210.623 53.4688 207.42 56.318 199.654 58.182C197.282 58.7512 191.561 60.4093 189.025 60.9954C183.05 62.3767 174.13 65.4366 167.485 67.2476C148.58 72.3998 130.622 76.3981 116.013 90.8584C108.086 98.7048 99.2365 104.926 90.9813 110.477C89.7316 111.317 88.4999 112.14 87.2887 112.948C80.3858 117.557 74.1523 121.718 69.0885 126.207C63.2022 131.425 59.3262 136.729 58.008 143.071C56.7671 149.041 57.6724 156.52 62.3541 166.519ZM143.487 212.492C145.326 223.593 146.909 240.762 146.242 259.553C145.52 279.923 142.145 302.52 133.343 321.418C126.191 346.406 112.749 377.354 104.028 411.506C98.5564 446.147 100.969 482.163 121.165 511.854C141.785 542.169 171.379 571.503 217.172 588.441C255.659 602.676 305.866 608.257 372.231 597.991C372.376 596.562 373.339 595.282 374.791 594.804C376.635 594.197 378.613 595.098 379.388 596.833C389.866 595.063 400.737 592.906 412.018 590.334C414.038 589.873 416.049 591.137 416.509 593.157C416.97 595.177 415.706 597.188 413.686 597.648C402.621 600.171 391.932 602.303 381.604 604.066C382.652 607.801 383.764 612.186 384.723 616.742C386.356 624.501 387.618 633.084 387.211 639.856C387.094 641.819 386.743 644.281 386.379 646.842C386.345 647.078 386.311 647.316 386.278 647.554C385.867 650.448 385.438 653.586 385.191 656.799C384.818 661.663 384.889 666.429 385.955 670.48C386.999 674.451 388.935 677.533 392.222 679.499C395.59 681.514 400.932 682.692 409.434 681.632C417.927 680.573 429.239 677.319 444.193 670.885C508.351 643.282 532.313 610.36 539.433 592.595C541.184 588.228 541.866 584.905 541.963 582.871C542.377 574.173 541.09 541.98 540.067 519.913C526.409 538.004 508.801 555.724 495.727 563.458C493.944 564.513 491.643 563.922 490.589 562.139C489.534 560.356 490.124 558.056 491.907 557.001C505.77 548.8 526.369 527.298 540.19 506.86C547.492 496.061 552.542 486.075 553.903 478.879C554.238 477.108 555.786 475.825 557.589 475.825C562.745 475.825 576.413 474.119 588.646 462.795C600.785 451.56 612.131 430.278 611.67 389.901C611.461 371.525 609.688 357.962 607.006 348.007C602.424 331 595.344 324.957 589.194 322.859C583.002 320.747 576.722 322.175 571.749 323.306C571.651 323.328 571.553 323.35 571.456 323.372C564.553 327.361 556.784 336.457 551.199 348.811C545.541 361.326 542.344 376.721 544.427 392.493C544.653 394.2 543.688 395.84 542.087 396.473C531.361 400.714 525.215 403.41 523.549 404.194C522.217 404.821 520.641 404.61 519.52 403.656C518.399 402.701 517.94 401.179 518.347 399.763C520.805 391.209 524.14 377.07 526.113 362.6C528.108 347.966 528.612 333.636 525.858 324.339C524.389 319.38 520.071 315.085 512.939 310.641C507.597 307.312 501.195 304.199 494.093 300.745C491.733 299.598 489.296 298.412 486.794 297.169C467.084 287.373 444.34 274.416 431.705 249.639C419.64 225.979 414.112 211.822 411.898 199.85C410.047 189.838 410.552 181.441 411.216 170.799C393.988 179.505 368.618 191.443 343.662 201.327C329.682 206.864 315.765 211.784 303.445 215.126C291.247 218.436 280.18 220.326 272.094 219.466C257.442 217.908 247.339 215.595 240.961 210.903C234.918 206.457 232.701 200.306 232.254 192.692C222.523 191.366 208.36 191.388 194.22 193.16C178.449 195.136 163.53 199.192 154.948 205.343C151.764 207.625 147.844 210.114 143.487 212.492ZM331.004 255.277C323.754 255.625 316.764 260.581 312.508 265.418C311.139 266.973 308.769 267.125 307.213 265.756C305.658 264.387 305.507 262.017 306.875 260.462C311.789 254.878 320.523 248.268 330.644 247.783C341.334 247.27 351.99 253.595 360.271 270.682C361.175 272.546 360.396 274.79 358.531 275.694C356.667 276.597 354.423 275.818 353.519 273.954C346.045 258.53 337.684 254.956 331.004 255.277ZM183.664 267.849C177.549 271.6 173.803 278.669 172.332 284.22C171.801 286.223 169.748 287.416 167.745 286.885C165.742 286.355 164.549 284.301 165.08 282.298C166.839 275.658 171.408 266.565 179.741 261.454C188.454 256.109 200.289 255.697 215.056 264.743C216.822 265.825 217.377 268.134 216.295 269.901C215.212 271.668 212.903 272.223 211.136 271.14C198.143 263.18 189.398 264.332 183.664 267.849ZM185.248 316.513C181.601 315.111 177.001 316.232 173.669 318.103C171.862 319.118 169.576 318.476 168.561 316.67C167.546 314.863 168.188 312.576 169.995 311.562C174.269 309.161 181.329 306.968 187.941 309.51C194.977 312.215 199.833 319.56 200.892 332.662C201.059 334.727 199.52 336.536 197.455 336.703C195.39 336.87 193.581 335.331 193.414 333.266C192.472 321.609 188.471 317.752 185.248 316.513ZM324.238 316.968C321.4 315.482 318.024 316.287 315.524 317.954C313.8 319.103 311.471 318.637 310.322 316.913C309.172 315.19 309.638 312.861 311.362 311.711C315.114 309.21 321.522 307.077 327.719 310.321C333.895 313.556 338.311 321.345 339.987 335.008C340.239 337.064 338.776 338.936 336.72 339.188C334.663 339.44 332.792 337.978 332.54 335.921C330.964 323.075 327.096 318.465 324.238 316.968ZM237.195 325.261C239.205 324.758 241.241 325.98 241.744 327.99C242.056 329.241 242.434 330.622 242.83 332.072C243.71 335.288 244.681 338.842 245.239 342.051C246.025 346.572 246.369 352.138 243.273 356.187C242.208 357.58 240.486 358.579 239.134 359.293C237.721 360.039 235.991 360.824 234.209 361.632L233.861 361.789C229.944 363.566 225.489 365.618 221.448 368.349C217.412 371.076 214.045 374.315 212.105 378.316C210.213 382.219 209.505 387.201 211.39 393.835C215.326 407.684 222.013 413.746 229.752 416.903C233.779 418.546 238.245 419.46 243.098 420.112C245.519 420.437 247.992 420.692 250.536 420.947L251.254 421.019C253.553 421.248 255.91 421.484 258.257 421.772C260.313 422.025 261.775 423.898 261.522 425.954C261.269 428.01 259.397 429.472 257.341 429.219C255.083 428.941 252.812 428.714 250.498 428.483L249.788 428.412C247.247 428.157 244.66 427.892 242.099 427.548C236.987 426.861 231.801 425.842 226.919 423.85C216.84 419.739 208.677 411.734 204.173 395.886C201.838 387.671 202.576 380.773 205.354 375.044C208.083 369.413 212.609 365.266 217.248 362.132C221.882 359.001 226.884 356.716 230.762 354.957L231.008 354.845C232.89 353.992 234.426 353.295 235.632 352.658C236.747 352.07 237.18 351.729 237.289 351.644C237.317 351.621 237.323 351.616 237.313 351.63C238.28 350.365 238.624 347.803 237.847 343.337C237.349 340.472 236.548 337.549 235.72 334.53C235.296 332.983 234.866 331.411 234.465 329.81C233.963 327.8 235.185 325.763 237.195 325.261ZM594.001 348.245C597.227 354.332 598.586 362.902 597.255 372.552C596.972 374.605 595.079 376.039 593.026 375.756C590.974 375.473 589.54 373.58 589.823 371.527C590.993 363.046 589.695 356.142 587.372 351.757C585.015 347.309 582.167 346.176 579.919 346.641C578.903 346.851 576.348 348.268 573.284 351.979C570.357 355.525 567.306 360.773 565.116 367.768C560.749 381.711 559.788 402.658 570.174 430.76C570.892 432.703 569.899 434.861 567.955 435.579C566.012 436.297 563.854 435.304 563.136 433.361C552.264 403.943 553.022 381.281 557.956 365.526C560.415 357.673 563.91 351.55 567.498 347.203C570.951 343.02 574.883 340.021 578.399 339.294C585.217 337.883 590.809 342.22 594.001 348.245ZM298.005 462.984C299.917 463.781 300.822 465.978 300.025 467.89C299.246 469.76 297.661 471.271 296.135 472.406C294.512 473.615 292.505 474.728 290.311 475.675C285.938 477.561 280.431 478.951 274.992 478.951C269.806 478.951 263.521 477.809 258.497 476.895L258.3 476.859C255.684 476.383 253.438 475.976 251.672 475.758C250.791 475.649 250.133 475.601 249.673 475.601C249.558 475.601 249.471 475.604 249.409 475.608C249.179 475.723 248.933 475.865 248.588 476.065C248.277 476.245 247.886 476.471 247.353 476.766C246.219 477.395 244.774 478.13 243.003 478.72C239.379 479.928 234.726 480.421 228.704 478.827C224.598 477.74 220.172 478.496 216.02 480.421C216.14 480.767 216.321 481.117 216.577 481.465C217.276 482.415 218.762 483.642 221.835 484.493C228.129 486.237 240.064 486.11 261.136 480.036C263.127 479.462 265.206 480.611 265.78 482.602C266.354 484.592 265.205 486.671 263.214 487.245C241.772 493.426 228.177 494.036 219.831 491.723C215.583 490.546 212.472 488.546 210.533 485.911C210.188 485.442 209.887 484.962 209.628 484.475C207.966 485.847 206.54 487.319 205.436 488.748C204.169 490.387 201.813 490.689 200.174 489.422C198.534 488.156 198.232 485.8 199.499 484.16C202.109 480.782 205.9 477.425 210.31 474.929C216.074 471.666 223.335 469.644 230.624 471.574C235.231 472.793 238.393 472.348 240.63 471.602C241.79 471.216 242.787 470.719 243.715 470.205C243.91 470.096 244.14 469.965 244.388 469.822C245.082 469.423 245.922 468.941 246.584 468.646C247.69 468.155 248.886 468.098 249.673 468.098C250.577 468.098 251.58 468.187 252.593 468.312C254.594 468.56 257.043 469.005 259.554 469.461L259.642 469.477C264.902 470.434 270.555 471.449 274.992 471.449C279.244 471.449 283.741 470.338 287.339 468.786C289.13 468.013 290.602 467.173 291.655 466.388C292.18 465.998 292.557 465.654 292.808 465.377C293.036 465.126 293.103 464.995 293.103 464.995C293.903 463.089 296.095 462.189 298.005 462.984Z" fill="#282849"/>
<ellipse cx="185.518" cy="342.029" rx="17.6641" ry="27.0141" transform="rotate(-4.98655 185.518 342.029)" fill="#282849"/>
<ellipse cx="324.635" cy="342.655" rx="17.6641" ry="27.0141" transform="rotate(-4.98655 324.635 342.655)" fill="#282849"/>
</g>
</svg>
