<svg width="137" height="141" viewBox="0 0 137 141" fill="none" xmlns="http://www.w3.org/2000/svg">
<g id="Group 3">
<g id="Group 2">
<path id="Vector 10" d="M112.375 86.3735C122.537 90.5577 119.249 95.9374 119.249 104.007C118.745 112.674 116.261 120.744 119.249 121.64C122.238 122.537 136.584 112.076 136.584 92.0521C136.584 72.0278 124.629 63.3605 119.249 60.9695C113.87 58.5786 97.1329 58.8774 95.0408 69.6368C92.9487 80.3961 102.214 82.1893 112.375 86.3735Z" fill="#f78263"/>
<path id="Vector 9" d="M77.1086 38.2554C66.6481 38.8532 48.417 40.3475 39.152 54.9922C36.1633 61.5673 39.152 72.3266 44.2328 79.7984C49.3137 87.2702 70.8323 116.261 42.1407 125.824C13.4492 135.388 0 97.9839 0 65.1537C0 35.2667 22.4153 14.6446 39.152 8.96611C55.8888 3.28757 63.0616 13.1503 78.6029 14.6446C94.1442 16.139 98.3284 23.013 96.5351 29.2893C94.7419 35.5656 87.569 37.6577 77.1086 38.2554Z" fill="#a5e2e4"/>
<path id="Vector 5 (Stroke)" fill-rule="evenodd" clip-rule="evenodd" d="M53.4997 31.9412C53.1397 36.025 53.6631 39.2591 54.7705 41.0587C56.8244 44.3962 60.3701 45.6335 63.5737 44.5046C66.787 43.3723 70.143 39.6615 71.1441 32.0823C71.9407 26.0503 69.2758 21.5936 65.4626 18.4573C63.5821 16.9106 61.4442 15.7082 59.3599 14.8333C58.5137 16.163 57.7539 17.5573 57.0808 18.9901C55.0438 23.3261 53.8539 27.923 53.4997 31.9412ZM56.4778 13.8118C55.6993 15.0831 54.9987 16.3931 54.3757 17.7193C52.1929 22.3658 50.9082 27.3034 50.5225 31.6788C50.1426 35.9885 50.6139 40.0068 52.2252 42.625C54.9532 47.0581 59.9253 48.959 64.567 47.3234C69.1991 45.6911 73.016 40.7346 74.107 32.4737C75.0714 25.1723 71.7589 19.7663 67.3612 16.1491C65.4239 14.5556 63.2588 13.2909 61.1144 12.336C65.3609 6.86194 71.3002 2.98871 78.9018 2.9887C85.8638 2.9887 90.7633 6.84483 94.2537 11.9737C97.7636 17.131 99.7292 23.4244 100.758 27.8356L100.977 28.7727L101.921 28.9614C105.221 29.6215 109.242 31.3141 111.83 33.9584C113.106 35.2619 113.998 36.7586 114.338 38.4511C114.675 40.1334 114.492 42.1359 113.407 44.5082C112.238 47.0668 110.556 48.5487 108.731 49.3331C106.877 50.1301 104.772 50.2491 102.743 49.8857C100.71 49.5215 98.8453 48.6881 97.5208 47.6971C96.1203 46.6492 95.6386 45.6814 95.6386 45.1294C95.6386 44.3041 94.9695 43.6351 94.1442 43.6351C93.3189 43.6351 92.6499 44.3041 92.6499 45.1294C92.6499 47.1179 94.0874 48.8609 95.7303 50.0901C97.4493 51.3762 99.7523 52.3862 102.216 52.8275C104.684 53.2697 107.405 53.1563 109.912 52.0789C112.447 50.989 114.661 48.9545 116.125 45.7507C117.432 42.8927 117.747 40.2503 117.268 37.8636C116.792 35.4871 115.555 33.4908 113.966 31.8679C111.089 28.9279 106.947 27.0916 103.448 26.2397C102.329 21.7323 100.289 15.5292 96.7245 10.2922C92.8927 4.66167 87.1822 -4.41789e-06 78.9018 0C69.7747 4.84543e-06 62.9036 4.85043 58.2173 11.221C56.582 10.6877 55.0301 10.3415 53.6832 10.1731C39.1531 8.35687 10.2865 23.2 6.87819 68.928C4.95402 94.7441 14.4937 112.479 28.3847 123.828C42.2073 135.122 60.23 140.013 75.2701 140.468C105.344 141.38 133.296 122.502 133.296 93.8453C133.296 71.4378 123.563 56.7694 118.466 52.0974L117.045 50.7947L116.138 52.4957C115.357 53.96 113.028 58.7604 109.553 66.9292C100.798 62.4902 91.7496 64.7245 87.0554 66.9816L78.9775 49.8566L69.2122 68.341C68.8266 69.0708 69.1057 69.9748 69.8354 70.3604C70.5651 70.7459 71.4692 70.4668 71.8547 69.7371L78.8261 56.5413L85.7265 71.17L87.1424 70.3205C90.8636 68.0878 100.602 64.9729 109.514 70.3205L110.992 71.2069L111.66 69.619C114.504 62.8654 116.633 58.2509 117.851 55.7419C122.625 61.1183 130.308 74.3239 130.308 93.8453C130.308 120.18 104.463 138.363 75.3606 137.481C60.8126 137.04 43.4736 132.297 30.2757 121.514C17.1461 110.786 8.00637 94.0014 9.85863 69.1501C13.1777 24.6193 40.9441 11.5927 53.3125 13.1388C54.2588 13.257 55.3343 13.4803 56.4778 13.8118Z" fill="black"/>
<circle id="Ellipse 1" cx="86.3735" cy="23.3119" r="1.79322" fill="black"/>
<circle id="Ellipse 2" cx="86.3735" cy="80.695" r="1.79322" fill="black"/>
<circle id="Ellipse 3" cx="110.881" cy="80.695" r="1.79322" fill="black"/>
<path id="Vector 6 (Stroke)" fill-rule="evenodd" clip-rule="evenodd" d="M108.342 34.9678L109.088 35.7664L109.833 34.9678H108.342ZM104.75 35.4987C103.501 34.1614 104.45 31.9791 106.279 31.9791H111.896C113.726 31.9791 114.674 34.1614 113.426 35.4987L110.617 38.508C109.79 39.3941 108.385 39.3941 107.558 38.508L104.75 35.4987Z" fill="black"/>
<path id="Vector 7 (Stroke)" fill-rule="evenodd" clip-rule="evenodd" d="M98.9474 95.9374L99.484 96.474L99.9823 95.9374H98.9474ZM95.3034 96.5201C93.9855 95.2022 94.9189 92.9487 96.7828 92.9487H102.038C103.865 92.9487 104.815 95.1257 103.572 96.4644L101.041 99.1895C100.234 100.058 98.8671 100.084 98.0286 99.2453L95.3034 96.5201Z" fill="black"/>
<path id="Vector 8 (Stroke)" fill-rule="evenodd" clip-rule="evenodd" d="M99.2284 102.659C101.931 105.638 105.687 106.814 109.135 106.688C112.781 106.554 116.414 104.938 118.142 102.035C118.565 101.326 118.332 100.409 117.623 99.9864C116.913 99.5642 115.996 99.7969 115.574 100.506C114.525 102.269 112.016 103.591 109.025 103.701C106.096 103.808 103.027 102.727 100.992 100.116C100.212 99.1146 98.7073 98.9945 97.7874 99.9104C94.869 102.816 91.7956 103.431 89.1088 103.08C86.3455 102.72 83.9325 101.324 82.5714 100.142C81.9483 99.601 81.0045 99.6675 80.4633 100.291C79.9222 100.914 79.9886 101.858 80.6118 102.399C82.3218 103.884 85.2637 105.593 88.7226 106.044C92.042 106.477 95.7853 105.736 99.2284 102.659Z" fill="black"/>
</g>
</g>
</svg>
