<svg width="800" height="800" viewBox="0 0 800 800" fill="none" xmlns="http://www.w3.org/2000/svg">
<mask id="mask0_127_225" style="mask-type:alpha" maskUnits="userSpaceOnUse" x="0" y="0" width="800" height="800">
<rect width="800" height="800" fill="#D9D9D9"/>
</mask>
<g mask="url(#mask0_127_225)">
<path fill-rule="evenodd" clip-rule="evenodd" d="M443.251 9.84766C361.378 2.64635 265.945 17.3982 192.475 79.3895C144.9 119.531 136.808 172.553 140.945 231.145C142.7 256.003 146.639 281.648 150.628 307.61C151.347 312.294 152.068 316.989 152.779 321.691C157.41 352.354 161.564 383.282 161.564 413.17C161.564 450.595 158.495 475.264 152.911 492.667C147.259 510.28 139.063 520.347 129.231 528.589C124.902 532.218 120.344 535.447 115.596 538.81C99.2156 550.413 82.065 573.64 62.7751 610.408C50.5116 647.539 50.1072 677.771 59.0279 709.684C67.8683 741.309 76.9049 764.955 89.8577 779.175C99.1511 769.789 108.913 760.26 118.713 751.159C132.975 737.916 147.374 725.525 160.569 715.788C173.656 706.13 185.941 698.79 195.912 696.057C202.828 694.161 210.704 693.012 219.135 692.309C231.748 691.257 245.883 691.183 260.305 691.209C262.009 691.212 263.718 691.216 265.429 691.221C278.261 691.254 291.243 691.287 303.741 690.738C317.909 690.115 331.257 688.748 342.821 685.849C354.402 682.946 363.893 678.579 370.633 672.169C383.375 660.052 388.734 639.918 389.884 618.773C390.899 600.098 388.59 581.373 385.843 568.396C350.91 581.532 314.722 587.19 283.975 570.749C258.667 557.217 235.031 532.424 218.238 507.813C209.82 495.474 203.03 483.05 198.575 471.923C194.181 460.95 191.831 450.689 192.946 442.908C201.271 384.798 197.786 329.761 194.872 283.758C194.592 279.333 194.317 274.991 194.059 270.739C192.592 246.616 191.638 225.164 193.351 207.739C194.962 191.357 198.998 177.674 208.015 168.713C206.053 150.695 208.522 130.636 218.507 109.6C219.476 107.56 221.914 106.691 223.953 107.659C225.993 108.628 226.861 111.066 225.893 113.105C216.221 133.482 214.172 152.695 216.372 169.762C219.474 193.818 231.05 213.754 241.92 226.569C240.723 215.23 240.537 199.49 244.098 183.37C244.525 181.439 246.273 180.09 248.25 180.167C250.226 180.245 251.864 181.726 252.138 183.685C257.571 222.467 271.608 250.336 289.556 270.486C307.531 290.665 329.61 303.304 351.397 311.31C373.197 319.321 394.611 322.658 411.124 324.279C418.24 324.978 424.412 325.356 429.345 325.657C430.138 325.706 430.899 325.752 431.626 325.798C434.224 325.961 436.473 326.116 438.204 326.313C439.067 326.411 439.892 326.529 440.613 326.685C441.215 326.815 442.21 327.062 443.093 327.624C451.128 332.737 502.059 365.494 526.939 456.375C527.458 458.271 527.754 460.275 528.001 461.948C528.071 462.421 528.137 462.868 528.203 463.278C536.561 515.233 515.588 551.996 490.449 589.657C487.832 593.577 485.17 597.508 482.487 601.47C459.328 635.668 434.652 672.108 424.469 723.28C417.888 756.353 418.386 780.178 423.403 797.661C430.931 823.899 448.902 836.701 471.01 845.09C482.146 849.315 494.186 852.36 506.407 855.431L504.415 854.93C516.374 857.934 530.038 859.155 541.165 863.36C585.658 880.174 613.314 879.776 633.365 876.508C652.945 873.316 663.822 862.688 671.028 847.645C677.495 834.146 683.765 824.714 687.42 806.595C687.945 803.99 688.477 801.356 689.024 798.7C693.31 777.883 698.535 755.936 709.937 737.375C741.282 686.348 752.959 644.819 753.487 608.993C754.016 573.156 743.4 542.598 729.406 513.429C723.673 501.478 717.409 489.831 711.115 478.127C709.71 475.515 708.304 472.901 706.902 470.279C699.243 455.96 691.731 441.483 685.463 426.467C672.897 396.361 665.279 363.965 671.228 325.676C683.241 248.353 676.589 197.127 662.698 159.083C651.087 127.283 631.718 109.391 615.918 87.8478C612.752 83.5309 609.622 79.2626 606.575 74.9797C602.499 69.2502 595.338 62.9966 585.317 56.7025C575.349 50.4408 548.127 38.6438 548.127 38.6438C548.127 38.6438 484.155 13.4454 443.251 9.84766ZM209.754 179.532C205.319 186.435 202.714 196.064 201.487 208.539C199.848 225.216 200.747 246.032 202.219 270.242C202.478 274.495 202.754 278.846 203.036 283.29C205.948 329.225 209.49 385.078 201.039 444.068C200.238 449.659 201.912 458.262 206.165 468.884C210.356 479.352 216.836 491.252 224.992 503.205C241.349 527.179 264.084 550.843 287.83 563.54C316.561 578.902 351.524 573.196 387.278 559.08C404.792 552.166 422.257 543.33 438.946 534.257C440.93 533.179 443.412 533.913 444.49 535.896C445.569 537.88 444.835 540.362 442.851 541.44C427.066 550.021 410.405 558.496 393.553 565.371C396.551 578.984 399.143 599.071 398.047 619.217C396.864 640.988 391.321 663.777 376.267 678.094C368.12 685.841 357.129 690.691 344.809 693.779C332.471 696.872 318.497 698.272 304.101 698.905C291.398 699.464 278.212 699.43 265.403 699.396C263.691 699.392 261.987 699.387 260.291 699.384C247.176 699.361 234.593 699.424 223.246 700.197C220.293 729.07 206.083 766.621 192.832 795.984C217.238 801.739 255.291 808.219 295.616 810.196C337.396 812.245 381.114 809.433 414.599 796.352C410.025 777.623 410.137 753.414 416.451 721.684C426.974 668.803 452.579 631.022 475.71 596.891C478.399 592.923 481.055 589.005 483.649 585.118C507.025 550.098 525.447 517.686 521.311 473.805C504.87 493.466 498.868 498.357 491.808 504.109C488.609 506.716 485.192 509.501 480.487 513.917C478.841 515.463 476.254 515.381 474.709 513.735C473.164 512.089 473.245 509.502 474.891 507.957C479.97 503.189 483.518 500.302 486.76 497.663C494.301 491.526 500.189 486.734 519.851 462.746C519.622 461.205 519.425 459.893 519.053 458.534C495.178 371.322 446.87 339.728 438.981 334.698C438.953 334.691 438.921 334.684 438.885 334.676C438.548 334.603 438.028 334.521 437.28 334.436C435.786 334.266 433.739 334.122 431.115 333.958C430.401 333.913 429.649 333.867 428.862 333.819C423.93 333.517 417.602 333.13 410.325 332.416C393.444 330.758 371.275 327.325 348.577 318.984C325.868 310.639 302.533 297.346 283.451 275.924C268.745 259.414 256.673 238.195 249.32 210.949C249.262 223.051 250.823 232.965 252.049 237.74C252.495 239.476 251.758 241.3 250.23 242.239C248.703 243.177 246.742 243.011 245.394 241.829C232.968 230.93 215.936 208.563 209.754 179.532ZM439.138 334.74C439.136 334.74 439.13 334.738 439.12 334.734C439.134 334.739 439.14 334.741 439.138 334.74ZM416.902 804.228C426.1 830.946 445.803 844.27 468.11 852.734C479.767 857.156 492.274 860.31 504.415 863.36L504.702 863.432C516.836 866.48 528.583 869.431 539.265 873.468C584.13 890.423 615.349 895.52 637.57 891.898C660.262 888.2 673.153 875.488 681.291 858.499C688.235 844.005 691.832 826.126 695.449 808.151C695.973 805.549 696.497 802.945 697.031 800.349C701.323 779.508 706.333 758.862 716.903 741.654C748.821 689.696 761.107 646.744 761.662 609.113C762.217 571.493 751.038 539.617 736.778 509.893C730.954 497.754 724.581 485.905 718.282 474.192C716.886 471.597 715.493 469.007 714.111 466.423C706.467 452.132 699.114 437.948 693.008 423.318C680.825 394.132 673.657 363.296 679.307 326.931C691.48 248.576 684.846 195.904 670.378 156.279C658.333 123.292 640.876 99.5082 625.045 77.9412C621.922 73.6855 618.861 69.516 615.918 65.3793C610.967 58.4196 602.809 51.4892 592.348 44.9182C581.835 38.3148 568.766 31.9307 553.744 26.1521C523.698 14.5945 485.592 5.36455 443.968 1.70346C360.786 -5.61287 262.899 9.27196 187.202 73.141C136.67 115.778 128.58 172.106 132.789 231.72C134.57 256.944 138.57 282.971 142.557 308.922C143.274 313.59 143.991 318.254 144.695 322.912C149.325 353.566 153.389 383.955 153.389 413.17C153.389 450.289 150.326 473.964 145.126 490.169C139.994 506.162 132.755 514.966 123.979 522.324C120.098 525.577 115.836 528.59 111.277 531.812C94.7501 543.493 74.3275 557.928 54.0459 596.585C33.1557 636.403 33.9213 676.237 43.2709 709.684C52.5577 742.907 70.3528 770.014 84.1181 785.013C68.6589 800.85 54.8172 815.928 44.7152 827.431C43.2254 829.127 43.3928 831.71 45.0891 833.2C46.7854 834.689 49.3682 834.522 50.858 832.826C67.9932 813.315 95.9999 783.409 124.277 757.15C138.418 744.018 152.569 731.852 165.423 722.366C178.386 712.8 189.648 706.251 198.073 703.942C203.053 702.577 208.718 701.606 214.943 700.924C211.632 729.604 196.906 767.657 183.348 797.077C177.571 809.611 172.065 820.456 167.855 828.17C166.773 830.152 167.503 832.635 169.485 833.717C171.467 834.798 173.95 834.068 175.032 832.086C178.987 824.838 184.026 814.955 189.352 803.559C214.134 809.515 253.466 816.315 295.215 818.362C337.086 820.416 381.883 817.719 416.902 804.228ZM233.883 309.931C226.671 311.225 220.274 315.75 216.653 319.576C215.101 321.216 212.513 321.287 210.874 319.734C209.234 318.182 209.163 315.595 210.715 313.956C215.156 309.265 223.033 303.571 232.439 301.884C242.196 300.134 253.13 302.801 262.782 314.112C264.247 315.83 264.043 318.41 262.326 319.875C260.608 321.341 258.028 321.137 256.563 319.419C248.773 310.291 240.744 308.7 233.883 309.931ZM237.806 343.662C234.028 341.098 229.117 341.724 225.391 343.586C223.372 344.596 220.916 343.778 219.907 341.758C218.897 339.739 219.716 337.284 221.735 336.274C226.866 333.708 235.206 332.018 242.397 336.897C249.6 341.785 254.021 352.179 253.881 369.94C253.863 372.197 252.019 374.013 249.761 373.995C247.503 373.977 245.688 372.133 245.705 369.875C245.838 353.026 241.572 346.217 237.806 343.662ZM365.704 343.691C361.756 341.083 356.439 341.716 352.365 343.63C350.321 344.59 347.886 343.712 346.926 341.669C345.966 339.625 346.844 337.19 348.888 336.23C354.238 333.716 362.888 332.033 370.21 336.869C377.652 341.784 381.982 352.267 381.282 370.068C381.193 372.324 379.292 374.081 377.036 373.992C374.78 373.903 373.024 372.003 373.112 369.747C373.774 352.938 369.532 346.219 365.704 343.691ZM283.384 372.425C285.38 373.48 286.143 375.954 285.088 377.95C280.925 385.825 274.853 398.123 270.175 409.39C267.832 415.033 265.881 420.318 264.685 424.612C264.087 426.762 263.706 428.566 263.543 429.985C263.462 430.69 263.442 431.244 263.46 431.659C263.468 431.864 263.486 432.017 263.504 432.125C263.522 432.234 263.538 432.28 263.537 432.277C263.634 432.56 264.209 433.452 266.612 434.452C268.865 435.388 271.965 436.093 275.574 436.565C282.755 437.503 291.066 437.411 296.515 437.026C298.767 436.867 300.722 438.564 300.881 440.816C301.04 443.068 299.343 445.022 297.091 445.181C291.299 445.591 282.407 445.703 274.514 444.672C270.586 444.158 266.681 443.334 263.473 442.001C260.416 440.73 257.072 438.61 255.808 434.942C255.165 433.08 255.202 430.952 255.421 429.052C255.651 427.05 256.148 424.795 256.809 422.42C258.133 417.662 260.227 412.029 262.625 406.255C267.428 394.686 273.62 382.151 277.86 374.129C278.915 372.133 281.388 371.37 283.384 372.425ZM357.386 466.456C359.564 465.862 361.811 467.146 362.405 469.324C363.422 473.054 361.324 476.161 359.409 478.055C357.369 480.074 354.546 481.774 351.606 483.082C345.859 485.638 338.154 487.338 332.314 485.961C317.609 482.491 311.166 483.151 306.302 484.191C305.383 484.388 304.472 484.613 303.54 484.843C299.182 485.919 294.356 487.112 286.058 486.036C278.447 485.049 272.851 485.701 268.472 487.087C273.25 492.294 287.099 499.381 316.807 488.042C318.916 487.237 321.278 488.294 322.083 490.403C322.888 492.512 321.831 494.875 319.722 495.68C286.162 508.489 267.488 500.17 260.876 490.72C258.842 492.036 256.976 493.512 255.09 495.038C253.336 496.459 250.762 496.188 249.341 494.433C247.921 492.678 248.192 490.104 249.946 488.684C253.545 485.77 257.894 482.334 263.87 480.039C269.906 477.722 277.329 476.66 287.109 477.928C293.809 478.797 297.201 477.967 301.37 476.948C302.38 476.701 303.434 476.444 304.593 476.196C310.885 474.851 318.579 474.32 334.192 478.003C337.55 478.796 343.301 477.828 348.284 475.612C350.709 474.533 352.57 473.321 353.659 472.243C354.191 471.717 354.39 471.388 354.46 471.236C354.019 469.135 355.287 467.028 357.386 466.456ZM354.493 471.135C354.495 471.135 354.493 471.148 354.484 471.176C354.487 471.149 354.492 471.135 354.493 471.135Z" fill="#282849"/>
<ellipse cx="238.997" cy="373.275" rx="18.06" ry="29.6716" transform="rotate(-5.63264 238.997 373.275)" fill="#282849"/>
<ellipse cx="367.764" cy="373.275" rx="18.06" ry="29.6716" transform="rotate(-5.63264 367.764 373.275)" fill="#282849"/>
</g>
</svg>
