<svg width="1064" height="1311" viewBox="0 0 1064 1311" fill="none" xmlns="http://www.w3.org/2000/svg">
<path fill-rule="evenodd" clip-rule="evenodd" d="M596.285 14.4541C476.113 3.88424 336.04 25.5367 228.202 116.526C158.372 175.445 146.495 253.269 152.567 339.268C155.144 375.755 160.926 413.395 166.78 451.503C167.836 458.378 168.894 465.268 169.937 472.169C176.735 517.176 182.832 562.571 182.832 606.44C182.832 661.372 178.328 697.58 170.131 723.123C161.836 748.976 149.806 763.751 135.375 775.849C129.02 781.176 122.33 785.915 115.361 790.851C91.3185 807.882 66.1453 841.974 37.832 895.941C19.832 950.441 19.2385 994.815 32.332 1041.66C45.3077 1088.07 58.5714 1122.78 77.5831 1143.65C91.2238 1129.88 105.552 1115.89 119.937 1102.53C140.869 1083.09 162.004 1064.91 181.371 1050.61C200.58 1036.44 218.611 1025.67 233.246 1021.65C243.398 1018.87 254.958 1017.19 267.334 1016.15C285.846 1014.61 306.593 1014.5 327.762 1014.54C330.263 1014.54 332.771 1014.55 335.282 1014.56C354.116 1014.6 373.172 1014.65 391.516 1013.85C412.312 1012.93 431.903 1010.93 448.876 1006.67C465.875 1002.41 479.805 996 489.698 986.593C508.401 968.807 516.266 939.255 517.954 908.219C519.444 880.808 516.054 853.325 512.022 834.276C460.749 853.557 407.633 861.863 362.503 837.731C325.356 817.868 290.664 781.479 266.017 745.355C253.66 727.245 243.695 709.008 237.155 692.676C230.706 676.571 227.257 661.509 228.893 650.089C241.113 564.797 235.997 484.015 231.721 416.493C231.31 409.998 230.906 403.625 230.527 397.383C228.373 361.976 226.973 330.489 229.488 304.914C231.852 280.868 237.777 260.786 251.011 247.632C248.131 221.187 251.756 191.744 266.412 160.867C267.833 157.874 271.412 156.599 274.405 158.02C277.399 159.441 278.674 163.019 277.253 166.013C263.056 195.921 260.048 224.122 263.278 249.173C267.831 284.48 284.821 313.743 300.776 332.552C299.019 315.909 298.746 292.806 303.974 269.146C304.6 266.311 307.166 264.331 310.067 264.445C312.968 264.558 315.372 266.733 315.774 269.608C323.749 326.532 344.352 367.437 370.695 397.012C397.078 426.63 429.485 445.182 461.464 456.933C493.462 468.691 524.892 473.589 549.13 475.969C559.574 476.994 568.633 477.548 575.874 477.991C577.038 478.063 578.154 478.131 579.222 478.198C583.035 478.437 586.336 478.665 588.876 478.954C590.144 479.098 591.355 479.271 592.413 479.5C593.297 479.691 594.756 480.053 596.054 480.878C607.846 488.382 682.601 536.463 719.119 669.856C719.881 672.638 720.316 675.58 720.678 678.036C720.781 678.73 720.878 679.385 720.975 679.987C733.243 756.246 702.458 810.205 665.561 865.483C661.72 871.237 657.812 877.007 653.875 882.822C619.883 933.017 583.663 986.502 568.717 1061.61C559.057 1110.16 559.789 1145.12 567.152 1170.79C578.201 1209.3 604.579 1228.09 637.029 1240.4C653.374 1246.6 671.046 1251.07 688.984 1255.58L686.06 1254.84C703.613 1259.25 723.668 1261.05 740 1267.22C805.305 1291.9 845.899 1291.31 875.329 1286.52C904.067 1281.83 920.033 1266.23 930.61 1244.15C940.102 1224.34 949.304 1210.49 954.669 1183.9C955.441 1180.08 956.221 1176.21 957.023 1172.31C963.316 1141.76 970.984 1109.54 987.72 1082.3C1033.73 1007.4 1050.87 946.449 1051.64 893.864C1052.42 841.263 1036.84 796.411 1016.3 753.598C1007.88 736.056 998.687 718.961 989.448 701.783C987.387 697.949 985.323 694.112 983.265 690.264C972.023 669.246 960.997 647.998 951.797 625.958C933.353 581.769 922.172 534.218 930.903 478.019C948.536 364.526 938.772 289.337 918.384 233.498C901.341 186.822 872.912 160.561 849.721 128.941C845.074 122.604 840.479 116.34 836.007 110.053C830.025 101.644 819.513 92.4648 804.806 83.2265C790.175 74.0358 750.219 56.7203 750.219 56.7203C750.219 56.7203 656.323 19.7348 596.285 14.4541ZM253.564 263.513C247.054 273.645 243.231 287.778 241.43 306.088C239.023 330.566 240.344 361.119 242.505 396.655C242.884 402.896 243.289 409.283 243.703 415.806C247.978 483.229 253.176 565.208 240.772 651.791C239.596 659.998 242.053 672.626 248.295 688.216C254.447 703.58 263.958 721.046 275.93 738.592C299.938 773.78 333.308 808.513 368.162 827.149C410.332 849.698 461.65 841.322 514.129 820.604C539.835 810.455 565.47 797.485 589.967 784.169C592.878 782.586 596.521 783.663 598.104 786.574C599.686 789.486 598.609 793.129 595.698 794.712C572.529 807.307 548.074 819.746 523.34 829.837C527.74 849.818 531.544 879.301 529.936 908.87C528.198 940.825 520.064 974.275 497.967 995.289C486.01 1006.66 469.877 1013.78 451.794 1018.31C433.684 1022.85 413.174 1024.91 392.043 1025.84C373.399 1026.66 354.045 1026.6 335.243 1026.56C332.732 1026.55 330.23 1026.54 327.74 1026.54C308.49 1026.5 290.022 1026.6 273.367 1027.73C269.033 1070.11 248.176 1125.23 228.726 1168.32C264.549 1176.77 320.401 1186.28 379.589 1189.19C440.913 1192.19 505.081 1188.06 554.23 1168.87C547.516 1141.37 547.68 1105.84 556.948 1059.27C572.393 981.651 609.976 926.197 643.927 876.101C647.874 870.277 651.772 864.526 655.58 858.821C689.89 807.419 716.93 759.846 710.859 695.439C686.728 724.297 677.919 731.475 667.556 739.919C662.86 743.745 657.844 747.832 650.939 754.315C648.523 756.583 644.726 756.463 642.458 754.047C640.19 751.631 640.31 747.834 642.726 745.566C650.18 738.568 655.387 734.33 660.145 730.457C671.214 721.449 679.856 714.416 708.717 679.207C708.38 676.945 708.091 675.019 707.545 673.024C672.501 545.017 601.596 498.644 590.017 491.261C589.976 491.251 589.93 491.24 589.877 491.229C589.382 491.122 588.619 491.002 587.521 490.877C585.328 490.628 582.324 490.416 578.472 490.174C577.423 490.109 576.32 490.041 575.165 489.971C567.926 489.528 558.637 488.96 547.957 487.911C523.179 485.479 490.64 480.439 457.325 468.197C423.992 455.948 389.743 436.437 361.735 404.993C340.15 380.761 322.43 349.617 311.638 309.625C311.552 327.388 313.844 341.94 315.644 348.948C316.298 351.497 315.216 354.174 312.974 355.552C310.732 356.93 307.854 356.686 305.876 354.951C287.637 338.953 262.637 306.123 253.564 263.513ZM590.248 491.323C590.246 491.323 590.236 491.32 590.221 491.314C590.242 491.321 590.251 491.324 590.248 491.323ZM557.611 1180.42C571.112 1219.64 600.031 1239.2 632.772 1251.62C649.881 1258.11 668.239 1262.74 686.06 1267.22L686.481 1267.32C704.29 1271.8 721.533 1276.13 737.211 1282.05C803.064 1306.94 848.886 1314.42 881.501 1309.11C914.807 1303.68 933.729 1285.02 945.674 1260.08C955.866 1238.81 961.146 1212.57 966.455 1186.18C967.223 1182.36 967.992 1178.54 968.777 1174.73C975.076 1144.14 982.43 1113.84 997.945 1088.58C1044.79 1012.32 1062.83 949.275 1063.64 894.041C1064.45 838.822 1048.05 792.035 1027.12 748.407C1018.57 730.591 1009.21 713.198 999.968 696.007C997.919 692.197 995.875 688.397 993.846 684.604C982.626 663.628 971.834 642.809 962.871 621.335C944.99 578.497 934.469 533.237 942.761 479.861C960.629 364.854 950.892 287.543 929.656 229.382C911.977 180.965 886.353 146.056 863.118 114.4C858.533 108.154 854.041 102.034 849.721 95.962C842.454 85.7467 830.479 75.5745 815.125 65.9298C799.695 56.2375 780.512 46.867 758.463 38.3853C714.362 21.4214 658.432 7.87396 597.337 2.50029C475.245 -8.23842 331.568 13.6091 220.463 107.354C146.292 169.936 134.419 252.612 140.597 340.113C143.211 377.135 149.081 415.338 154.934 453.428C155.987 460.279 157.039 467.126 158.071 473.962C164.867 518.955 170.832 563.56 170.832 606.44C170.832 660.923 166.337 695.672 158.705 719.457C151.173 742.932 140.547 755.854 127.665 766.653C121.969 771.429 115.713 775.85 109.022 780.579C84.7641 797.725 54.7884 818.912 25.0195 875.653C-5.64261 934.096 -4.5189 992.563 9.20422 1041.66C22.8352 1090.42 48.9544 1130.21 69.1587 1152.22C46.4681 1175.47 26.1517 1197.6 11.3241 1214.48C9.13744 1216.97 9.38316 1220.76 11.8729 1222.95C14.3627 1225.14 18.1538 1224.89 20.3405 1222.4C45.491 1193.76 86.5985 1149.87 128.103 1111.32C148.858 1092.05 169.629 1074.19 188.497 1060.27C207.522 1046.23 224.053 1036.62 236.418 1033.23C243.728 1031.22 252.043 1029.8 261.181 1028.8C256.32 1070.89 234.706 1126.75 214.805 1169.93C206.327 1188.33 198.244 1204.24 192.065 1215.57C190.478 1218.48 191.549 1222.12 194.458 1223.71C197.367 1225.29 201.012 1224.22 202.599 1221.31C208.405 1210.68 215.801 1196.17 223.619 1179.44C259.993 1188.19 317.722 1198.17 379.001 1201.17C440.458 1204.19 506.211 1200.23 557.611 1180.42ZM288.979 454.909C278.394 456.808 269.005 463.45 263.69 469.066C261.411 471.472 257.614 471.576 255.207 469.298C252.801 467.02 252.697 463.222 254.975 460.816C261.493 453.931 273.054 445.574 286.861 443.097C301.181 440.529 317.229 444.444 331.396 461.046C333.547 463.567 333.248 467.354 330.727 469.505C328.206 471.656 324.419 471.356 322.268 468.835C310.835 455.437 299.051 453.103 288.979 454.909ZM294.738 504.418C289.192 500.655 281.984 501.573 276.516 504.307C273.552 505.789 269.948 504.588 268.466 501.624C266.984 498.66 268.185 495.056 271.149 493.574C278.681 489.809 290.922 487.327 301.476 494.489C312.049 501.663 318.537 516.919 318.332 542.988C318.306 546.302 315.599 548.967 312.285 548.941C308.971 548.914 306.306 546.207 306.332 542.893C306.527 518.163 300.266 508.169 294.738 504.418ZM482.463 504.46C476.668 500.632 468.864 501.561 462.884 504.371C459.885 505.78 456.311 504.491 454.902 501.492C453.493 498.493 454.782 494.919 457.781 493.51C465.634 489.82 478.33 487.349 489.076 494.447C500 501.661 506.356 517.049 505.328 543.177C505.197 546.488 502.407 549.066 499.096 548.936C495.785 548.806 493.207 546.016 493.337 542.705C494.308 518.033 488.082 508.171 482.463 504.46ZM361.636 546.636C364.566 548.185 365.685 551.815 364.137 554.745C358.027 566.304 349.115 584.355 342.249 600.892C338.809 609.175 335.945 616.932 334.191 623.234C333.312 626.391 332.753 629.038 332.514 631.121C332.395 632.156 332.365 632.968 332.391 633.578C332.404 633.878 332.43 634.103 332.456 634.261C332.483 634.422 332.506 634.489 332.505 634.485C332.648 634.901 333.491 636.21 337.018 637.677C340.326 639.052 344.875 640.086 350.172 640.779C360.712 642.156 372.911 642.021 380.909 641.456C384.215 641.222 387.084 643.712 387.317 647.018C387.551 650.323 385.061 653.192 381.755 653.426C373.253 654.027 360.202 654.192 348.617 652.677C342.852 651.924 337.12 650.714 332.412 648.757C327.924 646.892 323.017 643.78 321.16 638.397C320.218 635.663 320.272 632.541 320.592 629.752C320.93 626.813 321.66 623.503 322.63 620.016C324.574 613.034 327.647 604.765 331.166 596.29C338.216 579.31 347.304 560.911 353.528 549.137C355.076 546.207 358.706 545.088 361.636 546.636ZM470.254 684.652C473.451 683.78 476.749 685.665 477.621 688.862C479.114 694.336 476.035 698.897 473.224 701.677C470.229 704.64 466.086 707.136 461.771 709.055C453.335 712.807 442.025 715.303 433.454 713.28C411.871 708.188 402.414 709.157 395.274 710.683C393.925 710.971 392.588 711.302 391.22 711.64C384.824 713.22 377.741 714.97 365.561 713.391C354.39 711.943 346.177 712.9 339.749 714.934C346.762 722.576 367.089 732.978 410.693 716.335C413.789 715.154 417.256 716.705 418.438 719.801C419.62 722.897 418.068 726.365 414.972 727.546C365.714 746.347 338.305 734.136 328.6 720.266C325.615 722.198 322.875 724.364 320.107 726.604C317.532 728.689 313.754 728.292 311.669 725.716C309.584 723.14 309.982 719.362 312.557 717.277C317.839 713.001 324.223 707.958 332.994 704.589C341.854 701.187 352.748 699.63 367.104 701.491C376.938 702.765 381.917 701.548 388.036 700.052C389.517 699.69 391.066 699.312 392.766 698.948C402.001 696.974 413.294 696.194 436.21 701.601C441.139 702.764 449.58 701.343 456.894 698.091C460.453 696.508 463.186 694.728 464.784 693.147C465.565 692.374 465.857 691.892 465.959 691.667C465.312 688.584 467.174 685.492 470.254 684.652ZM466.008 691.519C466.011 691.519 466.008 691.54 465.994 691.58C465.999 691.54 466.006 691.519 466.008 691.519Z" fill="#282849"/>
<ellipse cx="296.487" cy="547.884" rx="26.508" ry="43.5512" transform="rotate(-5.63264 296.487 547.884)" fill="#282849"/>
<ellipse cx="485.487" cy="547.884" rx="26.508" ry="43.5512" transform="rotate(-5.63264 485.487 547.884)" fill="#282849"/>
</svg>
