<svg width="1114" height="1332" viewBox="0 0 1114 1332" fill="none" xmlns="http://www.w3.org/2000/svg">
<path fill-rule="evenodd" clip-rule="evenodd" d="M637.747 29.9606C681.533 45.0145 716.744 66.6717 734.449 96.8906C762.047 143.994 766.49 217.263 761.457 288.459C756.399 360.015 741.641 430.965 729.554 474.528C729.544 474.564 729.534 474.599 729.523 474.634C735.385 490.039 737.945 508.141 737.268 526.828C735.465 576.61 710.476 633.358 658.323 657.854C657.468 658.256 656.517 659.13 654.669 661.12C654.565 661.232 654.456 661.35 654.344 661.472C653.445 662.446 652.285 663.702 650.891 664.898C652.239 700.245 653.668 749.393 655.003 795.269C655.882 825.498 656.72 854.307 657.466 876.812C689.924 872.015 717.632 881.419 732.306 903.126C747.979 926.308 747.09 961.042 725.035 1001.31C722.496 1005.94 719.876 1010.61 717.182 1015.3C725.021 1032.27 747.357 1064.89 782.823 1077.79C788.655 1079.91 797.877 1082.62 809.572 1086.05C845.271 1096.54 904.012 1113.8 959.713 1141.75C1033.76 1178.9 1105.7 1236.36 1113.75 1325.38C1114.05 1328.68 1111.61 1331.6 1108.31 1331.9C1105.01 1332.2 1102.1 1329.76 1101.8 1326.46C1094.34 1243.99 1027.54 1189.2 954.332 1152.47C899.794 1125.11 843.516 1108.57 807.625 1098.02C795.277 1094.39 785.343 1091.47 778.722 1089.06C743.877 1076.39 720.889 1047.18 709.991 1027.57C667.147 1099.31 607.802 1175.16 550.263 1226.4C548.567 1227.92 546.163 1228.34 544.053 1227.5C541.942 1226.66 540.488 1224.7 540.294 1222.43C538.262 1198.66 527.706 1179.29 515.758 1165.02L437.804 1254.86C436.485 1256.38 434.492 1257.13 432.497 1256.87C430.502 1256.61 428.769 1255.37 427.884 1253.56L390.691 1177.64C384.668 1188.57 378.429 1203.48 372.53 1223.61C371.831 1226 369.736 1227.7 367.261 1227.9C364.785 1228.11 362.441 1226.76 361.365 1224.52C346.964 1194.56 329.175 1154.7 318.118 1115.44C317.891 1115.69 317.661 1115.93 317.429 1116.18C313.182 1120.71 307.572 1125.82 300.945 1131.28C287.676 1142.21 269.979 1154.81 250.097 1167.32C210.465 1192.24 161.477 1217.22 120.876 1227.71C25.2918 1256.06 9.90245 1306.59 12.226 1325.18C12.637 1328.47 10.3047 1331.47 7.01654 1331.88C3.72842 1332.29 0.729683 1329.96 0.318668 1326.67C-3.02363 1299.93 18.842 1245.42 117.568 1216.17C117.636 1216.15 117.705 1216.13 117.774 1216.11C156.653 1206.09 204.477 1181.83 243.708 1157.16C263.275 1144.85 280.535 1132.54 293.316 1122.02C299.714 1116.75 304.902 1112 308.674 1107.97C311.627 1104.82 313.402 1102.44 314.32 1100.82C309.631 1081.02 306.947 1061.47 307.75 1043.65C308.579 1025.21 313.158 1008.22 323.518 994.763C339.723 973.718 356.67 965.468 371.863 964.62C381.08 964.106 389.257 966.342 395.772 969.617V891.109C374.779 898.953 348.876 905.68 323.072 907.365C293.863 909.273 263.86 904.769 241.536 887.001C192.44 847.925 97.0428 761.66 85.7972 638.469C83.0159 608.001 83.6893 586.336 86.0889 569.32C88.4928 552.274 92.6061 540.105 96.4007 528.878C100.182 517.691 103.594 507.575 105.147 493.948C106.702 480.304 106.413 462.872 102.347 437.368C99.1897 417.562 95.4672 398.745 91.8692 380.558C77.0943 305.871 64.4193 241.799 101.595 163.464C94.309 148.755 87.8597 135.452 84.008 123.423C79.9068 110.614 78.461 98.411 82.6149 86.8117C86.7746 75.1963 96.1399 65.3148 111.212 56.2314C126.259 47.1636 147.548 38.5543 176.516 29.6865C250.88 6.92212 372.767 -5.34903 484.368 2.25008C540.205 6.05215 593.786 14.8471 637.747 29.9606ZM112.603 168.258C77.0613 242.857 88.809 302.543 103.425 376.803C107.067 395.305 110.887 414.712 114.198 435.479C118.382 461.726 118.781 480.293 117.07 495.306C115.368 510.237 115.763 523.384 112.006 534.5V535.5C108.239 546.647 106.506 556 102.347 572.221C100.106 588.111 95.0288 607.596 97.7475 637.378C108.502 755.187 200.105 838.688 249.009 877.612C267.995 892.723 294.465 897.208 322.29 895.391C350.007 893.581 378.157 885.564 399.483 876.76C400.961 876.15 403.605 874.645 407.143 872.389C410.564 870.207 414.479 867.547 418.366 864.855C420.563 863.333 422.794 861.769 424.926 860.275C430.078 856.663 434.652 853.457 436.763 852.233C444.356 847.831 456.582 837.588 472.102 823.185C487.467 808.926 505.616 791.016 524.92 771.687C533.075 763.522 541.436 755.103 549.875 746.606C581.304 714.961 613.81 682.232 640.712 657.506C641.059 657.187 641.443 656.91 641.854 656.681C642.934 656.08 643.968 655.01 645.874 652.956L646.008 652.813C647.582 651.115 650.002 648.505 653.221 646.993C700.068 624.989 723.579 573.237 725.276 526.394C726.122 503.044 721.495 481.62 712.233 466.32C703.095 451.225 689.599 442.204 671.846 442.423C657.214 442.604 646.363 447.801 638.161 456.029C629.816 464.399 623.936 476.2 620.057 489.862C612.281 517.249 613.03 550.38 616.212 572.572C616.459 574.294 615.946 576.039 614.806 577.354C613.666 578.668 612.012 579.424 610.272 579.424H563.772C561.97 579.424 560.263 578.613 559.124 577.217C557.984 575.821 557.533 573.986 557.894 572.221C565.262 536.208 573.24 481.108 573.285 432.88C573.308 408.73 571.337 386.679 566.501 369.714C561.594 352.502 554.217 342.114 544.671 338.544C511.691 326.21 487.169 294.062 470.97 257.346C455.419 222.097 447.039 181.547 446.322 147.19C314.473 116.972 170.751 148.008 112.603 168.258ZM111.3 156.018C173.03 135.089 319.538 104.334 453.675 136.59C456.372 137.238 458.272 139.65 458.272 142.424C458.272 176.095 466.351 217.145 481.949 252.502C497.626 288.036 520.354 316.638 548.874 327.304C563.928 332.934 572.83 348.146 578.041 366.424C583.322 384.95 585.308 408.28 585.285 432.892C585.241 479.049 578.118 531.038 571.083 567.424H603.464C600.928 544.583 600.906 513.374 608.513 486.585C612.721 471.764 619.385 457.865 629.662 447.556C640.082 437.105 653.931 430.644 671.698 430.424C693.723 430.152 710.48 441.315 721.439 458.404C732.583 415.085 744.968 351.541 749.487 287.613C754.505 216.635 749.697 146.653 724.095 102.957C708.551 76.4258 676.637 56.0205 633.845 41.3087C591.227 26.6566 538.778 17.9828 483.552 14.2224C373.027 6.69647 252.665 18.9253 180.029 41.1609C151.402 49.9243 131.206 58.193 117.406 66.5092C103.633 74.8098 96.7913 82.8181 93.9123 90.8575C91.0275 98.9129 91.7112 108.129 95.4365 119.764C98.807 130.29 104.43 142.108 111.3 156.018ZM409.506 885L411.006 951.5L407.772 1014.92C407.772 1016.7 406.981 1018.39 405.613 1019.53C400.417 1023.86 389.311 1040.27 397.032 1066.74C405.283 1095.03 420.863 1128.85 427.626 1142.21C428.724 1144.38 428.404 1147 426.815 1148.84C425.226 1150.69 422.682 1151.39 420.375 1150.62C418.358 1149.94 409.797 1150.1 398.229 1165.75L434.676 1240.15L507.552 1156.17C499.963 1148.76 492.612 1143.55 487.385 1140.68C485.881 1139.86 484.802 1138.43 484.422 1136.75C484.041 1135.08 484.396 1133.32 485.395 1131.93C501.44 1109.53 542.649 1054.02 579.202 1011.04C614.199 969.886 632.563 934.491 641.006 919.924C640.925 915 643.589 903.554 643.003 886.5C642.195 862.998 643.975 828.887 643.003 795.453C641.791 753.794 640.504 709.505 639.267 675.244C614.634 698.433 586.25 727.012 558.514 754.938C550.044 763.465 541.635 771.932 533.411 780.167C514.096 799.505 495.81 817.554 480.265 831.981C464.874 846.265 451.713 857.437 442.782 862.614C441.138 863.567 437.384 866.199 432.616 869.542C430.336 871.14 427.823 872.901 425.199 874.719C421.276 877.436 417.212 880.2 413.595 882.507C411.587 883.787 411.327 883.991 409.506 885ZM395.772 983.702C390.634 979.744 382.376 976.052 372.532 976.602C361.591 977.212 347.622 983.129 333.026 1002.08C324.648 1012.96 320.498 1027.29 319.738 1044.19C318.977 1061.08 321.63 1080.14 326.465 1100C335.31 1136.34 351.239 1174.51 365.667 1205.55C372.324 1186.15 379.383 1171.98 386.314 1161.81C395.231 1148.72 404.559 1141.55 412.802 1139.22C404.916 1122.64 392.641 1094.54 385.512 1070.1C377.154 1041.45 387.248 1021.1 395.772 1012.33V983.702ZM657.875 888.888C658.431 905.296 658.772 916.668 658.772 919.924C658.772 920.96 658.504 921.978 657.993 922.88C649.962 937.063 624.974 975.739 588.343 1018.81C554.675 1058.4 516.915 1108.85 498.925 1133.68C505.289 1137.92 512.772 1144.01 520.088 1151.82C533.054 1165.66 545.807 1185.23 550.629 1209.85C606.994 1157.46 664.602 1082.11 705.279 1011.92C708.464 1006.42 711.544 1000.96 714.51 995.541C735.455 957.305 734.495 927.789 722.365 909.846C710.901 892.889 687.935 884.041 657.875 888.888ZM340.659 330.998C326.149 331.964 317.446 339.301 313.876 345.078C312.134 347.897 308.437 348.77 305.618 347.028C302.799 345.286 301.926 341.588 303.668 338.77C309.265 329.713 321.463 320.25 339.861 319.025C358.236 317.801 382.098 324.81 411.41 347.152C414.045 349.161 414.553 352.926 412.544 355.561C410.535 358.196 406.77 358.704 404.135 356.696C376.246 335.438 355.192 330.03 340.659 330.998ZM138.262 350.373C126.645 354.283 117.664 362.377 113.079 368.514C111.096 371.169 107.336 371.714 104.682 369.731C102.027 367.748 101.482 363.988 103.465 361.333C109.214 353.637 120.083 343.831 134.433 339C149.085 334.067 167.054 334.453 186.06 346.905C188.832 348.721 189.607 352.44 187.791 355.212C185.975 357.984 182.256 358.759 179.484 356.943C163.69 346.595 149.577 346.563 138.262 350.373ZM235.86 425.138C239.055 426.014 240.935 429.315 240.059 432.511C233.49 456.456 225.551 495.537 217.947 528.878C214.143 545.556 209.156 559.209 207.034 571.813C205.973 578.12 205.213 583.581 204.814 587.976C204.402 592.525 204.429 595.431 204.684 596.895C205.573 602.008 207.16 606.067 209.669 609.244C212.134 612.367 215.812 615.047 221.598 616.896C233.551 620.714 253.755 620.758 287.604 614.038C290.854 613.393 294.012 615.505 294.657 618.755C295.303 622.005 293.191 625.163 289.941 625.809C255.79 632.589 232.993 633.133 217.947 628.326C210.233 625.862 204.41 621.949 200.251 616.681C196.135 611.468 193.972 605.339 192.861 598.952C192.316 595.816 192.441 591.554 192.863 586.892C193.3 582.075 194.113 576.283 195.201 569.821C197.378 556.888 200.71 540.961 204.535 524.189C212.189 490.63 221.888 453.392 228.486 429.337C229.363 426.141 232.664 424.261 235.86 425.138ZM356.268 443.211C350.175 439.169 342.599 440.597 336.878 444.057C334.043 445.773 330.354 444.865 328.639 442.029C326.924 439.194 327.832 435.505 330.667 433.79C338.446 429.084 351.37 425.562 362.902 433.211C374.233 440.728 381.751 457.506 382.769 487.218C382.882 490.53 380.29 493.307 376.978 493.42C373.666 493.534 370.889 490.941 370.776 487.629C369.794 458.941 362.562 447.386 356.268 443.211ZM158.725 443.152C152.997 440.351 146.012 441.656 141.045 444.245C138.107 445.776 134.483 444.635 132.951 441.697C131.42 438.758 132.561 435.134 135.499 433.603C142.366 430.025 153.581 427.28 163.995 432.371C174.764 437.636 182.362 450.091 184.25 471.906C184.536 475.208 182.091 478.116 178.79 478.401C175.488 478.687 172.58 476.242 172.295 472.941C170.583 453.157 164.097 445.778 158.725 443.152ZM682.14 482.798C686.962 486.794 691.298 491.781 694.639 496.414C696.577 499.102 695.97 502.852 693.282 504.79C690.594 506.729 686.844 506.121 684.906 503.433C681.997 499.4 678.333 495.228 674.483 492.037C670.507 488.742 666.987 487.035 664.311 486.801C662.291 486.624 660.028 487.179 657.566 490.864C654.833 494.952 652.196 502.541 650.735 515.591C647.785 541.947 648.499 562.532 650.53 577.465C652.585 592.572 655.935 601.512 657.926 604.851C659.623 607.697 658.691 611.38 655.845 613.077C652.998 614.774 649.315 613.842 647.619 610.996C644.443 605.668 640.793 594.908 638.64 579.082C636.463 563.082 635.76 541.5 638.81 514.256C640.349 500.506 643.274 490.653 647.588 484.196C652.173 477.335 658.442 474.24 665.359 474.847C671.62 475.395 677.444 478.906 682.14 482.798ZM370.783 684.461C373.248 686.676 373.45 690.47 371.235 692.934C341.661 725.841 309.143 736.314 280.39 735.622C251.926 734.937 227.554 723.334 213.629 712.691C210.996 710.678 210.493 706.913 212.505 704.28C214.518 701.647 218.283 701.144 220.916 703.156C233.157 712.513 255.135 723.01 280.679 723.625C305.935 724.233 335.084 715.206 362.31 684.913C364.525 682.448 368.318 682.246 370.783 684.461Z" fill="#282849"/>
<ellipse cx="159.772" cy="486.008" rx="26.082" ry="41.2843" transform="rotate(-4.88078 159.772 486.008)" fill="#282849"/>
<ellipse cx="357.772" cy="486.277" rx="26.082" ry="41.2843" transform="rotate(-4.88078 357.772 486.277)" fill="#282849"/>
</svg>
