<svg width="800" height="800" viewBox="0 0 800 800" fill="none" xmlns="http://www.w3.org/2000/svg">
<mask id="mask0_127_224" style="mask-type:alpha" maskUnits="userSpaceOnUse" x="0" y="0" width="800" height="800">
<rect width="800" height="800" fill="#D9D9D9"/>
</mask>
<g mask="url(#mask0_127_224)">
<path fill-rule="evenodd" clip-rule="evenodd" d="M478.965 19.2597C507.112 28.9368 529.747 42.8588 541.129 62.2845C558.87 92.5644 561.726 139.664 558.49 185.431C555.239 231.43 545.752 277.039 537.982 305.042C537.975 305.065 537.969 305.088 537.962 305.111C541.73 315.014 543.376 326.65 542.941 338.663C541.782 370.664 525.718 407.144 492.192 422.891C491.643 423.149 491.031 423.711 489.843 424.99C489.776 425.062 489.707 425.138 489.634 425.216C489.056 425.842 488.311 426.65 487.415 427.419C488.281 450.141 489.2 481.735 490.058 511.226C490.623 530.658 491.161 549.177 491.641 563.644C512.506 560.561 530.318 566.606 539.751 580.559C549.826 595.462 549.255 617.79 535.077 643.673C533.445 646.653 531.761 649.652 530.029 652.667C535.068 663.577 549.426 684.546 572.225 692.836C575.974 694.2 581.902 695.942 589.42 698.151C612.369 704.894 650.129 715.99 685.936 733.954C733.533 757.833 779.782 794.771 784.955 852.001C785.147 854.123 783.582 855.998 781.461 856.19C779.339 856.382 777.464 854.817 777.272 852.696C772.481 799.68 729.537 764.459 682.477 740.849C647.418 723.26 611.241 712.626 588.169 705.844C580.231 703.511 573.845 701.634 569.589 700.086C547.189 691.941 532.412 673.164 525.406 660.556C497.865 706.672 459.716 755.431 422.727 788.374C421.637 789.345 420.092 789.617 418.735 789.077C417.379 788.537 416.444 787.277 416.319 785.822C415.013 770.539 408.227 758.084 400.546 748.915L350.435 806.664C349.587 807.641 348.306 808.128 347.024 807.961C345.741 807.793 344.627 806.994 344.058 805.833L320.149 757.026C316.277 764.051 312.267 773.64 308.475 786.579C308.026 788.111 306.679 789.208 305.087 789.338C303.496 789.468 301.989 788.604 301.297 787.165C292.04 767.903 280.605 742.282 273.497 717.041C273.351 717.2 273.203 717.359 273.054 717.518C270.324 720.431 266.718 723.718 262.457 727.226C253.928 734.251 242.552 742.351 229.771 750.389C204.294 766.414 172.803 782.467 146.703 789.211C85.2584 807.438 75.3656 839.921 76.8593 851.87C77.1235 853.984 75.6242 855.911 73.5105 856.176C71.3968 856.44 69.4691 854.941 69.2049 852.827C67.0563 835.639 81.1123 800.6 144.577 781.796C144.621 781.783 144.665 781.77 144.709 781.759C169.702 775.314 200.445 759.722 225.664 743.86C238.242 735.948 249.338 728.038 257.554 721.271C261.666 717.885 265.001 714.83 267.426 712.243C269.324 710.217 270.465 708.684 271.056 707.645C268.041 694.916 266.316 682.351 266.832 670.891C267.365 659.042 270.309 648.116 276.968 639.467C287.385 625.939 298.279 620.635 308.046 620.09C313.971 619.76 319.227 621.197 323.416 623.303V572.835C309.921 577.877 293.27 582.202 276.682 583.285C257.905 584.511 238.618 581.616 224.268 570.194C192.707 545.074 131.382 489.621 124.153 410.429C122.365 390.844 122.798 376.916 124.341 365.978C125.886 355.021 128.53 347.197 130.97 339.98C133.4 332.789 135.594 326.286 136.592 317.526C137.591 308.756 137.406 297.55 134.792 281.155C132.762 268.423 130.37 256.327 128.057 244.635C118.559 196.624 110.411 155.437 134.309 105.08C129.625 95.6248 125.479 87.0734 123.003 79.3405C120.367 71.1066 119.437 63.2619 122.108 55.8055C124.782 48.3387 130.802 41.9865 140.491 36.1474C150.163 30.3184 163.849 24.784 182.47 19.0835C230.274 4.44977 308.627 -3.43854 380.368 1.44643C416.262 3.89053 450.706 9.54422 478.965 19.2597ZM141.385 108.162C118.538 156.116 126.089 194.485 135.485 242.221C137.826 254.115 140.282 266.591 142.41 279.941C145.1 296.813 145.356 308.749 144.256 318.4C143.163 327.997 143.417 336.449 141.001 343.594V344.237C138.579 351.403 137.466 357.415 134.792 367.843C133.352 378.058 130.088 390.583 131.835 409.728C138.749 485.46 197.634 539.137 229.071 564.158C241.276 573.872 258.292 576.756 276.179 575.587C293.996 574.424 312.092 569.27 325.801 563.611C326.751 563.219 328.451 562.251 330.725 560.801C332.925 559.398 335.441 557.689 337.94 555.958C339.352 554.979 340.786 553.974 342.156 553.013C345.469 550.692 348.409 548.631 349.766 547.844C354.647 545.014 362.507 538.43 372.483 529.171C382.36 520.005 394.027 508.492 406.436 496.066C411.678 490.818 417.053 485.406 422.478 479.944C442.682 459.601 463.578 438.562 480.871 422.667C481.094 422.462 481.341 422.284 481.606 422.137C482.299 421.75 482.964 421.062 484.19 419.742L484.275 419.65C485.287 418.559 486.843 416.881 488.913 415.909C519.027 401.764 534.141 368.496 535.232 338.384C535.776 323.374 532.801 309.601 526.848 299.766C520.973 290.063 512.297 284.264 500.885 284.405C491.479 284.521 484.504 287.862 479.231 293.151C473.867 298.531 470.087 306.117 467.593 314.9C462.595 332.505 463.076 353.803 465.122 368.069C465.28 369.176 464.951 370.297 464.218 371.142C463.485 371.987 462.422 372.473 461.304 372.473H431.412C430.253 372.473 429.156 371.952 428.424 371.055C427.691 370.157 427.401 368.978 427.633 367.843C432.37 344.693 437.498 309.272 437.527 278.27C437.541 262.745 436.275 248.57 433.166 237.665C430.011 226.6 425.269 219.922 419.133 217.627C397.932 209.699 382.168 189.033 371.756 165.43C361.759 142.771 356.371 116.704 355.911 94.6185C271.154 75.1936 178.764 95.1445 141.385 108.162ZM140.548 100.293C180.23 86.8399 274.409 67.0694 360.638 87.8047C362.371 88.2215 363.593 89.772 363.593 91.5548C363.593 113.2 368.786 139.588 378.813 162.317C388.891 185.159 403.501 203.545 421.835 210.402C431.512 214.021 437.234 223.8 440.584 235.55C443.979 247.459 445.256 262.456 445.241 278.277C445.213 307.949 440.634 341.369 436.111 364.759H456.927C455.297 350.076 455.283 330.014 460.173 312.793C462.878 303.266 467.161 294.331 473.768 287.704C480.466 280.986 489.369 276.832 500.79 276.691C514.949 276.516 525.721 283.692 532.765 294.678C539.929 266.83 547.891 225.982 550.796 184.887C554.021 139.26 550.931 94.2736 534.473 66.1841C524.48 49.129 503.965 36.0118 476.457 26.5546C449.061 17.1357 415.344 11.5599 379.844 9.14261C308.795 4.30471 231.422 12.1658 184.728 26.4596C166.326 32.093 153.343 37.4084 144.473 42.7544C135.619 48.0902 131.221 53.2383 129.37 58.4062C127.516 63.5845 127.955 69.509 130.35 76.9882C132.516 83.7551 136.131 91.3518 140.548 100.293ZM332.244 568.908L333.209 611.656L331.13 652.427C331.13 653.572 330.621 654.657 329.742 655.39C326.402 658.174 319.263 668.722 324.226 685.739C329.529 703.922 339.545 725.665 343.892 734.254C344.598 735.649 344.392 737.332 343.371 738.515C342.349 739.699 340.714 740.149 339.231 739.655C337.934 739.222 332.431 739.321 324.995 749.383L348.425 797.211L395.272 743.224C390.393 738.463 385.667 735.114 382.307 733.27C381.34 732.739 380.647 731.819 380.403 730.744C380.158 729.668 380.386 728.539 381.028 727.642C391.342 713.246 417.833 677.557 441.33 649.928C463.828 623.475 475.633 600.722 481.06 591.358C481.008 588.193 482.721 580.835 482.344 569.872C481.824 554.764 482.969 532.837 482.344 511.344C481.565 484.564 480.737 456.094 479.942 434.07C464.108 448.976 445.861 467.348 428.032 485.299C422.587 490.781 417.181 496.224 411.894 501.517C399.478 513.949 387.724 525.551 377.73 534.826C367.837 544.008 359.376 551.189 353.635 554.518C352.579 555.13 350.165 556.822 347.1 558.971C345.634 559.998 344.019 561.13 342.332 562.299C339.811 564.046 337.198 565.822 334.873 567.305C333.582 568.128 333.415 568.259 332.244 568.908ZM323.416 632.357C320.113 629.812 314.804 627.439 308.476 627.792C301.443 628.185 292.463 631.988 283.081 644.173C277.695 651.168 275.027 660.378 274.538 671.238C274.049 682.098 275.755 694.351 278.863 707.12C284.549 730.477 294.788 755.016 304.063 774.971C308.342 762.495 312.88 753.388 317.336 746.85C323.068 738.439 329.064 733.824 334.363 732.327C329.294 721.674 321.403 703.61 316.82 687.899C311.448 669.478 317.936 656.398 323.416 650.757V632.357ZM491.904 571.407C492.262 581.955 492.481 589.265 492.481 591.358C492.481 592.024 492.309 592.679 491.98 593.258C486.818 602.375 470.754 627.238 447.207 654.926C425.564 680.374 401.29 712.808 389.726 728.768C393.817 731.491 398.627 735.41 403.33 740.43C411.665 749.327 419.863 761.908 422.963 777.73C459.196 744.052 496.228 695.616 522.377 650.493C524.424 646.96 526.404 643.448 528.311 639.967C541.775 615.388 541.158 596.414 533.361 584.88C525.991 573.979 511.228 568.291 491.904 571.407ZM287.987 212.777C278.659 213.398 273.065 218.114 270.77 221.828C269.65 223.64 267.274 224.201 265.462 223.081C263.65 221.961 263.088 219.585 264.208 217.772C267.806 211.951 275.647 205.867 287.474 205.08C299.286 204.293 314.626 208.799 333.468 223.161C335.162 224.452 335.489 226.872 334.197 228.567C332.906 230.261 330.486 230.587 328.792 229.296C310.864 215.631 297.329 212.154 287.987 212.777ZM157.879 225.231C150.412 227.745 144.638 232.948 141.691 236.894C140.416 238.6 137.999 238.95 136.293 237.675C134.586 236.401 134.236 233.984 135.511 232.277C139.207 227.33 146.193 221.026 155.418 217.921C164.837 214.75 176.388 214.997 188.606 223.002C190.388 224.17 190.886 226.56 189.718 228.342C188.551 230.124 186.16 230.622 184.378 229.455C174.226 222.803 165.153 222.783 157.879 225.231ZM220.618 273.293C222.673 273.856 223.881 275.978 223.318 278.033C219.095 293.425 213.992 318.548 209.103 339.98C206.658 350.702 203.453 359.478 202.089 367.581C201.406 371.635 200.918 375.146 200.662 377.97C200.396 380.895 200.414 382.763 200.578 383.704C201.149 386.991 202.169 389.6 203.782 391.643C205.367 393.65 207.731 395.373 211.451 396.561C219.135 399.016 232.122 399.044 253.882 394.725C255.971 394.31 258.001 395.667 258.416 397.757C258.831 399.846 257.473 401.876 255.384 402.291C233.43 406.649 218.776 406.999 209.103 403.909C204.145 402.325 200.402 399.81 197.728 396.423C195.082 393.072 193.692 389.133 192.978 385.026C192.627 383.01 192.707 380.271 192.979 377.274C193.26 374.177 193.782 370.454 194.482 366.3C195.881 357.987 198.023 347.748 200.482 336.967C205.402 315.393 211.637 291.455 215.879 275.992C216.442 273.938 218.564 272.729 220.618 273.293ZM298.021 284.911C294.104 282.313 289.234 283.23 285.557 285.455C283.734 286.558 281.363 285.974 280.26 284.151C279.158 282.329 279.741 279.957 281.564 278.855C286.564 275.83 294.872 273.565 302.285 278.483C309.57 283.315 314.403 294.1 315.057 313.2C315.13 315.329 313.463 317.114 311.334 317.187C309.205 317.26 307.42 315.593 307.347 313.464C306.716 295.023 302.067 287.595 298.021 284.911ZM171.033 284.873C167.352 283.073 162.861 283.912 159.669 285.575C157.78 286.56 155.45 285.826 154.466 283.937C153.481 282.048 154.215 279.719 156.104 278.735C160.518 276.434 167.727 274.67 174.422 277.943C181.344 281.327 186.228 289.334 187.442 303.357C187.626 305.48 186.054 307.349 183.932 307.533C181.81 307.716 179.94 306.145 179.757 304.022C178.656 291.304 174.487 286.561 171.033 284.873ZM507.503 310.359C510.602 312.928 513.389 316.134 515.537 319.112C516.783 320.84 516.393 323.25 514.665 324.496C512.937 325.742 510.526 325.352 509.281 323.624C507.411 321.031 505.055 318.349 502.58 316.298C500.024 314.18 497.762 313.083 496.041 312.932C494.743 312.818 493.288 313.175 491.705 315.544C489.949 318.172 488.253 323.05 487.314 331.439C485.418 348.382 485.877 361.615 487.183 371.214C488.504 380.925 490.657 386.672 491.937 388.819C493.028 390.648 492.429 393.016 490.599 394.107C488.769 395.197 486.402 394.598 485.311 392.769C483.269 389.344 480.923 382.427 479.539 372.254C478.14 361.968 477.688 348.095 479.648 330.581C480.638 321.742 482.518 315.409 485.292 311.258C488.239 306.847 492.268 304.858 496.715 305.247C500.74 305.6 504.484 307.857 507.503 310.359ZM307.352 439.995C308.936 441.418 309.066 443.857 307.642 445.441C288.631 466.595 267.728 473.327 249.244 472.882C230.947 472.442 215.279 464.983 206.328 458.141C204.635 456.848 204.312 454.427 205.606 452.735C206.899 451.042 209.32 450.719 211.012 452.013C218.881 458.027 233.01 464.775 249.43 465.171C265.665 465.561 284.403 459.759 301.905 440.285C303.329 438.701 305.767 438.571 307.352 439.995Z" fill="#282849"/>
<ellipse cx="171.707" cy="312.422" rx="16.7664" ry="26.5389" transform="rotate(-4.88078 171.707 312.422)" fill="#282849"/>
<ellipse cx="298.988" cy="312.596" rx="16.7664" ry="26.5389" transform="rotate(-4.88078 298.988 312.596)" fill="#282849"/>
</g>
</svg>
